Interstate-Compressed.ufo
<glyph name="exclam" format="1">
  <advance width="206"/>
  <unicode hex="0021"/>
  <outline>
    <contour>
      <point x="148" y="356" type="line"/>
      <point x="132" y="182" type="line"/>
      <point x="74" y="182" type="line"/>
      <point x="58" y="356" type="line"/>
      <point x="58" y="700" type="line"/>
      <point x="148" y="700" type="line"/>
    </contour>
    <contour>
      <point x="161" y="47" type="curve" smooth="yes"/>
      <point x="161" y="14"/>
      <point x="137" y="-11"/>
      <point x="103" y="-11" type="curve" smooth="yes"/>
      <point x="70" y="-11"/>
      <point x="46" y="14"/>
      <point x="46" y="47" type="curve" smooth="yes"/>
      <point x="46" y="80"/>
      <point x="70" y="105"/>
      <point x="103" y="105" type="curve" smooth="yes"/>
      <point x="137" y="105"/>
      <point x="161" y="80"/>
    </contour>
  </outline>
</glyph>
<glyph name="quotedbl" format="1">
  <advance width="408"/>
  <unicode hex="0022"/>
  <outline>
    <contour>
      <point x="349" y="700" type="line"/>
      <point x="326" y="373" type="line"/>
      <point x="269" y="373" type="line"/>
      <point x="246" y="700" type="line"/>
    </contour>
    <contour>
      <point x="162" y="700" type="line"/>
      <point x="139" y="373" type="line"/>
      <point x="82" y="373" type="line"/>
      <point x="59" y="700" type="line"/>
    </contour>
  </outline>
</glyph>
<glyph name="numbersign" format="1">
  <advance width="450"/>
  <unicode hex="0023"/>
  <outline>
    <contour>
      <point x="420" y="160" type="line"/>
      <point x="355" y="160" type="line"/>
      <point x="355" y="0" type="line"/>
      <point x="271" y="0" type="line"/>
      <point x="271" y="160" type="line"/>
      <point x="179" y="160" type="line"/>
      <point x="179" y="0" type="line"/>
      <point x="95" y="0" type="line"/>
      <point x="95" y="160" type="line"/>
      <point x="30" y="160" type="line"/>
      <point x="30" y="241" type="line"/>
      <point x="95" y="241" type="line"/>
      <point x="95" y="459" type="line"/>
      <point x="30" y="459" type="line"/>
      <point x="30" y="540" type="line"/>
      <point x="95" y="540" type="line"/>
      <point x="95" y="700" type="line"/>
      <point x="179" y="700" type="line"/>
      <point x="179" y="540" type="line"/>
      <point x="271" y="540" type="line"/>
      <point x="271" y="700" type="line"/>
      <point x="355" y="700" type="line"/>
      <point x="355" y="540" type="line"/>
      <point x="420" y="540" type="line"/>
      <point x="420" y="459" type="line"/>
      <point x="355" y="459" type="line"/>
      <point x="355" y="241" type="line"/>
      <point x="420" y="241" type="line"/>
    </contour>
    <contour>
      <point x="271" y="241" type="line"/>
      <point x="271" y="459" type="line"/>
      <point x="179" y="459" type="line"/>
      <point x="179" y="241" type="line"/>
    </contour>
  </outline>
</glyph>
<glyph name="dollar" format="1">
  <advance width="333"/>
  <unicode hex="0024"/>
  <outline>
    <contour>
      <point x="307" y="159" type="curve" smooth="yes"/>
      <point x="307" y="80"/>
      <point x="267" y="21"/>
      <point x="206" y="4" type="curve"/>
      <point x="206" y="-66" type="line"/>
      <point x="119" y="-66" type="line"/>
      <point x="119" y="6" type="line"/>
      <point x="64" y="24"/>
      <point x="31" y="75"/>
      <point x="22" y="170" type="curve"/>
      <point x="109" y="184" type="line"/>
      <point x="118" y="106"/>
      <point x="136" y="87"/>
      <point x="169" y="87" type="curve" smooth="yes"/>
      <point x="204" y="87"/>
      <point x="220" y="106"/>
      <point x="220" y="151" type="curve" smooth="yes"/>
      <point x="220" y="212"/>
      <point x="195" y="248"/>
      <point x="126" y="333" type="curve" smooth="yes"/>
      <point x="70" y="403"/>
      <point x="27" y="468"/>
      <point x="27" y="548" type="curve" smooth="yes"/>
      <point x="27" y="617"/>
      <point x="58" y="675"/>
      <point x="117" y="694" type="curve"/>
      <point x="117" y="766" type="line"/>
      <point x="204" y="766" type="line"/>
      <point x="204" y="696" type="line"/>
      <point x="264" y="680"/>
      <point x="291" y="628"/>
      <point x="302" y="552" type="curve"/>
      <point x="216" y="533" type="line"/>
      <point x="206" y="592"/>
      <point x="194" y="615"/>
      <point x="162" y="615" type="curve" smooth="yes"/>
      <point x="130" y="615"/>
      <point x="115" y="594"/>
      <point x="115" y="550" type="curve" smooth="yes"/>
      <point x="115" y="507"/>
      <point x="137" y="472"/>
      <point x="192" y="404" type="curve" smooth="yes"/>
      <point x="261" y="319"/>
      <point x="307" y="247"/>
    </contour>
  </outline>
</glyph>
<glyph name="ampersand" format="1">
  <advance width="355"/>
  <unicode hex="0026"/>
  <outline>
    <contour>
      <point x="345" y="0" type="line"/>
      <point x="260" y="0" type="line"/>
      <point x="238" y="59" type="line"/>
      <point x="212" y="10"/>
      <point x="182" y="-11"/>
      <point x="140" y="-11" type="curve" smooth="yes"/>
      <point x="59" y="-11"/>
      <point x="24" y="53"/>
      <point x="24" y="170" type="curve" smooth="yes"/>
      <point x="24" y="247"/>
      <point x="55" y="330"/>
      <point x="109" y="395" type="curve"/>
      <point x="86" y="456" type="line" smooth="yes"/>
      <point x="66" y="508"/>
      <point x="54" y="544"/>
      <point x="54" y="582" type="curve" smooth="yes"/>
      <point x="54" y="660"/>
      <point x="101" y="711"/>
      <point x="179" y="711" type="curve" smooth="yes"/>
      <point x="248" y="711"/>
      <point x="281" y="671"/>
      <point x="303" y="602" type="curve"/>
      <point x="224" y="562" type="line"/>
      <point x="207" y="614"/>
      <point x="197" y="628"/>
      <point x="174" y="628" type="curve" smooth="yes"/>
      <point x="149" y="628"/>
      <point x="138" y="611"/>
      <point x="138" y="583" type="curve" smooth="yes"/>
      <point x="138" y="554"/>
      <point x="147" y="528"/>
      <point x="161" y="491" type="curve" smooth="yes"/>
      <point x="236" y="291" type="line"/>
      <point x="242" y="321"/>
      <point x="249" y="355"/>
      <point x="257" y="394" type="curve"/>
      <point x="329" y="375" type="line"/>
      <point x="311" y="293"/>
      <point x="295" y="227"/>
      <point x="280" y="173" type="curve"/>
    </contour>
    <contour>
      <point x="202" y="152" type="curve"/>
      <point x="141" y="311" type="line"/>
      <point x="121" y="270"/>
      <point x="111" y="223"/>
      <point x="111" y="179" type="curve" smooth="yes"/>
      <point x="111" y="106"/>
      <point x="122" y="73"/>
      <point x="150" y="73" type="curve" smooth="yes"/>
      <point x="169" y="73"/>
      <point x="182" y="86"/>
    </contour>
  </outline>
</glyph>
<glyph name="quotesingle" format="1">
  <advance width="221"/>
  <unicode hex="0027"/>
  <outline>
    <contour>
      <point x="162" y="700" type="line"/>
      <point x="139" y="373" type="line"/>
      <point x="82" y="373" type="line"/>
      <point x="59" y="700" type="line"/>
    </contour>
  </outline>
</glyph>
<glyph name="parenleft" format="1">
  <advance width="250"/>
  <unicode hex="0028"/>
  <outline>
    <contour>
      <point x="221" y="-75" type="curve"/>
      <point x="170" y="-110" type="line"/>
      <point x="80" y="13"/>
      <point x="35" y="143"/>
      <point x="35" y="302" type="curve" smooth="yes"/>
      <point x="35" y="464"/>
      <point x="80" y="593"/>
      <point x="170" y="716" type="curve"/>
      <point x="221" y="681" type="line"/>
      <point x="153" y="573"/>
      <point x="125" y="450"/>
      <point x="125" y="305" type="curve" smooth="yes"/>
      <point x="125" y="155"/>
      <point x="153" y="33"/>
    </contour>
  </outline>
</glyph>
<glyph name="parenright" format="1">
  <advance width="250"/>
  <unicode hex="0029"/>
  <outline>
    <contour>
      <point x="215" y="303" type="curve" smooth="yes"/>
      <point x="215" y="141"/>
      <point x="170" y="12"/>
      <point x="80" y="-111" type="curve"/>
      <point x="29" y="-76" type="line"/>
      <point x="97" y="32"/>
      <point x="125" y="155"/>
      <point x="125" y="300" type="curve" smooth="yes"/>
      <point x="125" y="449"/>
      <point x="97" y="572"/>
      <point x="29" y="680" type="curve"/>
      <point x="80" y="715" type="line"/>
      <point x="170" y="592"/>
      <point x="215" y="462"/>
    </contour>
  </outline>
</glyph>
<glyph name="asterisk" format="1">
  <advance width="330"/>
  <unicode hex="002A"/>
  <outline>
    <contour>
      <point x="301" y="523" type="line"/>
      <point x="271" y="472" type="line"/>
      <point x="180" y="540" type="line"/>
      <point x="194" y="428" type="line"/>
      <point x="134" y="428" type="line"/>
      <point x="148" y="540" type="line"/>
      <point x="57" y="472" type="line"/>
      <point x="27" y="523" type="line"/>
      <point x="130" y="566" type="line"/>
      <point x="27" y="611" type="line"/>
      <point x="57" y="662" type="line"/>
      <point x="148" y="593" type="line"/>
      <point x="134" y="705" type="line"/>
      <point x="194" y="705" type="line"/>
      <point x="180" y="593" type="line"/>
      <point x="271" y="662" type="line"/>
      <point x="301" y="611" type="line"/>
      <point x="198" y="567" type="line"/>
    </contour>
  </outline>
</glyph>
<glyph name="plus" format="1">
  <advance width="339"/>
  <unicode hex="002B"/>
  <outline>
    <contour>
      <point x="318" y="302" type="line"/>
      <point x="212" y="302" type="line"/>
      <point x="212" y="177" type="line"/>
      <point x="127" y="177" type="line"/>
      <point x="127" y="302" type="line"/>
      <point x="21" y="302" type="line"/>
      <point x="21" y="386" type="line"/>
      <point x="127" y="386" type="line"/>
      <point x="127" y="511" type="line"/>
      <point x="212" y="511" type="line"/>
      <point x="212" y="386" type="line"/>
      <point x="318" y="386" type="line"/>
    </contour>
  </outline>
</glyph>
<glyph name="comma" format="1">
  <advance width="202"/>
  <unicode hex="002C"/>
  <outline>
    <contour>
      <point x="156" y="103" type="line"/>
      <point x="100" y="-100" type="line"/>
      <point x="43" y="-100" type="line"/>
      <point x="55" y="103" type="line"/>
    </contour>
  </outline>
</glyph>
<glyph name="hyphen" format="1">
  <advance width="248"/>
  <unicode hex="002D"/>
  <unicode hex="2010"/>
  <unicode hex="2011"/>
  <outline>
    <contour>
      <point x="214" y="322" type="line"/>
      <point x="34" y="322" type="line"/>
      <point x="34" y="410" type="line"/>
      <point x="214" y="410" type="line"/>
    </contour>
  </outline>
</glyph>
<glyph name="period" format="1">
  <advance width="202"/>
  <unicode hex="002E"/>
  <outline>
    <contour>
      <point x="162" y="48" type="curve" smooth="yes"/>
      <point x="162" y="15"/>
      <point x="137" y="-11"/>
      <point x="103" y="-11" type="curve" smooth="yes"/>
      <point x="70" y="-11"/>
      <point x="45" y="15"/>
      <point x="45" y="48" type="curve" smooth="yes"/>
      <point x="45" y="81"/>
      <point x="70" y="107"/>
      <point x="103" y="107" type="curve" smooth="yes"/>
      <point x="137" y="107"/>
      <point x="162" y="81"/>
    </contour>
  </outline>
</glyph>
<glyph name="slash" format="1">
  <advance width="275"/>
  <unicode hex="002F"/>
  <outline>
    <contour>
      <point x="284" y="790" type="line"/>
      <point x="74" y="-90" type="line"/>
      <point x="-9" y="-90" type="line"/>
      <point x="201" y="790" type="line"/>
    </contour>
  </outline>
</glyph>
<glyph name="zero" format="1">
  <advance width="362"/>
  <unicode hex="0030"/>
  <outline>
    <contour>
      <point x="328" y="352" type="curve" smooth="yes"/>
      <point x="328" y="122"/>
      <point x="300" y="-11"/>
      <point x="179" y="-11" type="curve" smooth="yes"/>
      <point x="63" y="-11"/>
      <point x="34" y="119"/>
      <point x="34" y="348" type="curve" smooth="yes"/>
      <point x="34" y="578"/>
      <point x="62" y="711"/>
      <point x="180" y="711" type="curve" smooth="yes"/>
      <point x="299" y="711"/>
      <point x="328" y="576"/>
    </contour>
    <contour>
      <point x="237" y="347" type="curve" smooth="yes"/>
      <point x="237" y="571"/>
      <point x="219" y="622"/>
      <point x="179" y="622" type="curve" smooth="yes"/>
      <point x="138" y="622"/>
      <point x="125" y="569"/>
      <point x="125" y="353" type="curve" smooth="yes"/>
      <point x="125" y="126"/>
      <point x="141" y="78"/>
      <point x="182" y="78" type="curve" smooth="yes"/>
      <point x="222" y="78"/>
      <point x="237" y="126"/>
    </contour>
  </outline>
</glyph>
<glyph name="one" format="1">
  <advance width="238"/>
  <unicode hex="0031"/>
  <outline>
    <contour>
      <point x="180" y="0" type="line"/>
      <point x="90" y="0" type="line"/>
      <point x="90" y="568" type="line"/>
      <point x="17" y="568" type="line"/>
      <point x="17" y="626" type="line"/>
      <point x="71" y="633"/>
      <point x="95" y="653"/>
      <point x="105" y="700" type="curve"/>
      <point x="180" y="700" type="line"/>
    </contour>
  </outline>
</glyph>
<glyph name="two" format="1">
  <advance width="332"/>
  <unicode hex="0032"/>
  <outline>
    <contour>
      <point x="300" y="0" type="line"/>
      <point x="29" y="0" type="line"/>
      <point x="36" y="207"/>
      <point x="66" y="277"/>
      <point x="156" y="391" type="curve" smooth="yes"/>
      <point x="196" y="441"/>
      <point x="209" y="488"/>
      <point x="209" y="538" type="curve" smooth="yes"/>
      <point x="209" y="598"/>
      <point x="200" y="624"/>
      <point x="169" y="624" type="curve" smooth="yes"/>
      <point x="137" y="624"/>
      <point x="127" y="595"/>
      <point x="119" y="514" type="curve"/>
      <point x="31" y="526" type="line"/>
      <point x="39" y="630"/>
      <point x="70" y="711"/>
      <point x="171" y="711" type="curve" smooth="yes"/>
      <point x="264" y="711"/>
      <point x="299" y="637"/>
      <point x="299" y="541" type="curve" smooth="yes"/>
      <point x="299" y="472"/>
      <point x="276" y="409"/>
      <point x="220" y="336" type="curve" smooth="yes"/>
      <point x="149" y="243"/>
      <point x="126" y="181"/>
      <point x="123" y="85" type="curve"/>
      <point x="300" y="85" type="line"/>
    </contour>
  </outline>
</glyph>
<glyph name="three" format="1">
  <advance width="348"/>
  <unicode hex="0033"/>
  <outline>
    <contour>
      <point x="313" y="206" type="curve" smooth="yes"/>
      <point x="313" y="71"/>
      <point x="260" y="-11"/>
      <point x="169" y="-11" type="curve" smooth="yes"/>
      <point x="70" y="-11"/>
      <point x="36" y="72"/>
      <point x="31" y="168" type="curve"/>
      <point x="120" y="180" type="line"/>
      <point x="125" y="115"/>
      <point x="134" y="77"/>
      <point x="173" y="77" type="curve" smooth="yes"/>
      <point x="210" y="77"/>
      <point x="223" y="121"/>
      <point x="223" y="198" type="curve" smooth="yes"/>
      <point x="223" y="301"/>
      <point x="209" y="332"/>
      <point x="139" y="332" type="curve" smooth="yes"/>
      <point x="120" y="332" type="line"/>
      <point x="120" y="416" type="line"/>
      <point x="142" y="416" type="line" smooth="yes"/>
      <point x="202" y="416"/>
      <point x="217" y="447"/>
      <point x="217" y="545" type="curve" smooth="yes"/>
      <point x="217" y="597"/>
      <point x="207" y="623"/>
      <point x="173" y="623" type="curve" smooth="yes"/>
      <point x="138" y="623"/>
      <point x="128" y="589"/>
      <point x="119" y="524" type="curve"/>
      <point x="32" y="536" type="line"/>
      <point x="44" y="636"/>
      <point x="77" y="711"/>
      <point x="175" y="711" type="curve" smooth="yes"/>
      <point x="262" y="711"/>
      <point x="307" y="643"/>
      <point x="307" y="548" type="curve" smooth="yes"/>
      <point x="307" y="444"/>
      <point x="279" y="399"/>
      <point x="227" y="381" type="curve"/>
      <point x="276" y="364"/>
      <point x="313" y="334"/>
    </contour>
  </outline>
</glyph>
<glyph name="four" format="1">
  <advance width="341"/>
  <unicode hex="0034"/>
  <outline>
    <contour>
      <point x="326" y="180" type="line"/>
      <point x="284" y="180" type="line"/>
      <point x="284" y="0" type="line"/>
      <point x="207" y="0" type="line"/>
      <point x="207" y="182" type="line"/>
      <point x="14" y="182" type="line"/>
      <point x="14" y="240" type="line"/>
      <point x="210" y="700" type="line"/>
      <point x="284" y="700" type="line"/>
      <point x="284" y="257" type="line"/>
      <point x="326" y="257" type="line"/>
    </contour>
    <contour>
      <point x="211" y="546" type="curve"/>
      <point x="201" y="512"/>
      <point x="170" y="425"/>
      <point x="154" y="383" type="curve" smooth="yes"/>
      <point x="139" y="344" type="line" smooth="yes"/>
      <point x="127" y="313"/>
      <point x="113" y="281"/>
      <point x="101" y="256" type="curve"/>
      <point x="119" y="256"/>
      <point x="138" y="257"/>
      <point x="162" y="257" type="curve" smooth="yes"/>
      <point x="207" y="257" type="line"/>
      <point x="207" y="406" type="line" smooth="yes"/>
      <point x="207" y="453"/>
      <point x="209" y="514"/>
    </contour>
  </outline>
</glyph>
<glyph name="five" format="1">
  <advance width="353"/>
  <unicode hex="0035"/>
  <outline>
    <contour>
      <point x="315" y="238" type="curve" smooth="yes"/>
      <point x="315" y="89"/>
      <point x="280" y="-11"/>
      <point x="170" y="-11" type="curve" smooth="yes"/>
      <point x="79" y="-11"/>
      <point x="46" y="66"/>
      <point x="38" y="158" type="curve"/>
      <point x="127" y="170" type="line"/>
      <point x="133" y="116"/>
      <point x="139" y="77"/>
      <point x="176" y="77" type="curve" smooth="yes"/>
      <point x="221" y="77"/>
      <point x="224" y="137"/>
      <point x="224" y="235" type="curve" smooth="yes"/>
      <point x="224" y="327"/>
      <point x="215" y="384"/>
      <point x="170" y="384" type="curve" smooth="yes"/>
      <point x="141" y="384"/>
      <point x="122" y="363"/>
      <point x="109" y="328" type="curve"/>
      <point x="41" y="336" type="line"/>
      <point x="55" y="700" type="line"/>
      <point x="302" y="700" type="line"/>
      <point x="302" y="615" type="line"/>
      <point x="135" y="615" type="line"/>
      <point x="127" y="444" type="line"/>
      <point x="141" y="461"/>
      <point x="163" y="473"/>
      <point x="193" y="473" type="curve" smooth="yes"/>
      <point x="280" y="473"/>
      <point x="315" y="390"/>
    </contour>
  </outline>
</glyph>
<glyph name="six" format="1">
  <advance width="348"/>
  <unicode hex="0036"/>
  <outline>
    <contour>
      <point x="323" y="212" type="curve" smooth="yes"/>
      <point x="323" y="84"/>
      <point x="273" y="-11"/>
      <point x="172" y="-11" type="curve" smooth="yes"/>
      <point x="81" y="-11"/>
      <point x="33" y="71"/>
      <point x="33" y="229" type="curve" smooth="yes"/>
      <point x="33" y="509"/>
      <point x="120" y="635"/>
      <point x="230" y="716" type="curve"/>
      <point x="282" y="645" type="line"/>
      <point x="195" y="589"/>
      <point x="137" y="488"/>
      <point x="124" y="383" type="curve"/>
      <point x="140" y="411"/>
      <point x="165" y="426"/>
      <point x="195" y="426" type="curve" smooth="yes"/>
      <point x="282" y="426"/>
      <point x="323" y="323"/>
    </contour>
    <contour>
      <point x="234" y="210" type="curve" smooth="yes"/>
      <point x="234" y="276"/>
      <point x="218" y="340"/>
      <point x="177" y="340" type="curve" smooth="yes"/>
      <point x="133" y="340"/>
      <point x="118" y="284"/>
      <point x="118" y="203" type="curve" smooth="yes"/>
      <point x="118" y="122"/>
      <point x="141" y="75"/>
      <point x="175" y="75" type="curve" smooth="yes"/>
      <point x="216" y="75"/>
      <point x="234" y="128"/>
    </contour>
  </outline>
</glyph>
<glyph name="seven" format="1">
  <advance width="338"/>
  <unicode hex="0037"/>
  <outline>
    <contour>
      <point x="304" y="618" type="line"/>
      <point x="187" y="426"/>
      <point x="176" y="260"/>
      <point x="176" y="0" type="curve"/>
      <point x="86" y="0" type="line"/>
      <point x="86" y="191"/>
      <point x="99" y="424"/>
      <point x="216" y="615" type="curve"/>
      <point x="19" y="615" type="line"/>
      <point x="19" y="700" type="line"/>
      <point x="304" y="700" type="line"/>
    </contour>
  </outline>
</glyph>
<glyph name="eight" format="1">
  <advance width="342"/>
  <unicode hex="0038"/>
  <outline>
    <contour>
      <point x="310" y="209" type="curve" smooth="yes"/>
      <point x="310" y="61"/>
      <point x="257" y="-11"/>
      <point x="169" y="-11" type="curve" smooth="yes"/>
      <point x="85" y="-11"/>
      <point x="32" y="64"/>
      <point x="32" y="208" type="curve" smooth="yes"/>
      <point x="32" y="302"/>
      <point x="58" y="350"/>
      <point x="97" y="383" type="curve"/>
      <point x="64" y="410"/>
      <point x="36" y="455"/>
      <point x="36" y="526" type="curve" smooth="yes"/>
      <point x="36" y="627"/>
      <point x="85" y="711"/>
      <point x="171" y="711" type="curve" smooth="yes"/>
      <point x="263" y="711"/>
      <point x="306" y="623"/>
      <point x="306" y="527" type="curve" smooth="yes"/>
      <point x="306" y="456"/>
      <point x="279" y="414"/>
      <point x="245" y="385" type="curve"/>
      <point x="285" y="353"/>
      <point x="310" y="302"/>
    </contour>
    <contour>
      <point x="218" y="524" type="curve" smooth="yes"/>
      <point x="218" y="591"/>
      <point x="200" y="623"/>
      <point x="171" y="623" type="curve" smooth="yes"/>
      <point x="142" y="623"/>
      <point x="124" y="594"/>
      <point x="124" y="527" type="curve" smooth="yes"/>
      <point x="124" y="473"/>
      <point x="141" y="427"/>
      <point x="171" y="427" type="curve" smooth="yes"/>
      <point x="201" y="427"/>
      <point x="218" y="471"/>
    </contour>
    <contour>
      <point x="222" y="208" type="curve" smooth="yes"/>
      <point x="222" y="298"/>
      <point x="203" y="341"/>
      <point x="170" y="341" type="curve" smooth="yes"/>
      <point x="137" y="341"/>
      <point x="120" y="296"/>
      <point x="120" y="210" type="curve" smooth="yes"/>
      <point x="120" y="118"/>
      <point x="138" y="77"/>
      <point x="172" y="77" type="curve" smooth="yes"/>
      <point x="204" y="77"/>
      <point x="222" y="115"/>
    </contour>
  </outline>
</glyph>
<glyph name="nine" format="1">
  <advance width="348"/>
  <unicode hex="0039"/>
  <outline>
    <contour>
      <point x="315" y="471" type="curve" smooth="yes"/>
      <point x="315" y="191"/>
      <point x="228" y="65"/>
      <point x="118" y="-16" type="curve"/>
      <point x="66" y="55" type="line"/>
      <point x="153" y="111"/>
      <point x="211" y="212"/>
      <point x="224" y="317" type="curve"/>
      <point x="208" y="289"/>
      <point x="183" y="274"/>
      <point x="153" y="274" type="curve" smooth="yes"/>
      <point x="66" y="274"/>
      <point x="25" y="377"/>
      <point x="25" y="488" type="curve" smooth="yes"/>
      <point x="25" y="616"/>
      <point x="75" y="711"/>
      <point x="176" y="711" type="curve" smooth="yes"/>
      <point x="267" y="711"/>
      <point x="315" y="629"/>
    </contour>
    <contour>
      <point x="230" y="497" type="curve" smooth="yes"/>
      <point x="230" y="578"/>
      <point x="207" y="625"/>
      <point x="173" y="625" type="curve" smooth="yes"/>
      <point x="132" y="625"/>
      <point x="114" y="572"/>
      <point x="114" y="490" type="curve" smooth="yes"/>
      <point x="114" y="424"/>
      <point x="130" y="360"/>
      <point x="171" y="360" type="curve" smooth="yes"/>
      <point x="215" y="360"/>
      <point x="230" y="416"/>
    </contour>
  </outline>
</glyph>
<glyph name="colon" format="1">
  <advance width="202"/>
  <unicode hex="003A"/>
  <outline>
    <contour>
      <point x="162" y="477" type="curve" smooth="yes"/>
      <point x="162" y="444"/>
      <point x="137" y="418"/>
      <point x="103" y="418" type="curve" smooth="yes"/>
      <point x="70" y="418"/>
      <point x="45" y="444"/>
      <point x="45" y="477" type="curve" smooth="yes"/>
      <point x="45" y="510"/>
      <point x="70" y="536"/>
      <point x="103" y="536" type="curve" smooth="yes"/>
      <point x="137" y="536"/>
      <point x="162" y="510"/>
    </contour>
    <contour>
      <point x="162" y="48" type="curve" smooth="yes"/>
      <point x="162" y="15"/>
      <point x="137" y="-11"/>
      <point x="103" y="-11" type="curve" smooth="yes"/>
      <point x="70" y="-11"/>
      <point x="45" y="15"/>
      <point x="45" y="48" type="curve" smooth="yes"/>
      <point x="45" y="81"/>
      <point x="70" y="107"/>
      <point x="103" y="107" type="curve" smooth="yes"/>
      <point x="137" y="107"/>
      <point x="162" y="81"/>
    </contour>
  </outline>
</glyph>
<glyph name="semicolon" format="1">
  <advance width="202"/>
  <unicode hex="003B"/>
  <outline>
    <contour>
      <point x="162" y="477" type="curve" smooth="yes"/>
      <point x="162" y="444"/>
      <point x="137" y="418"/>
      <point x="103" y="418" type="curve" smooth="yes"/>
      <point x="70" y="418"/>
      <point x="45" y="444"/>
      <point x="45" y="477" type="curve" smooth="yes"/>
      <point x="45" y="510"/>
      <point x="70" y="536"/>
      <point x="103" y="536" type="curve" smooth="yes"/>
      <point x="137" y="536"/>
      <point x="162" y="510"/>
    </contour>
    <contour>
      <point x="156" y="103" type="line"/>
      <point x="100" y="-100" type="line"/>
      <point x="43" y="-100" type="line"/>
      <point x="55" y="103" type="line"/>
    </contour>
  </outline>
</glyph>
<glyph name="less" format="1">
  <advance width="260"/>
  <unicode hex="003C"/>
  <outline>
    <contour>
      <point x="229" y="120" type="line"/>
      <point x="23" y="303" type="line"/>
      <point x="23" y="385" type="line"/>
      <point x="229" y="568" type="line"/>
      <point x="229" y="457" type="line"/>
      <point x="95" y="345" type="line"/>
      <point x="229" y="232" type="line"/>
    </contour>
  </outline>
</glyph>
<glyph name="equal" format="1">
  <advance width="395"/>
  <unicode hex="003D"/>
  <outline>
    <contour>
      <point x="340" y="397" type="line"/>
      <point x="55" y="397" type="line"/>
      <point x="55" y="484" type="line"/>
      <point x="340" y="484" type="line"/>
    </contour>
    <contour>
      <point x="340" y="204" type="line"/>
      <point x="55" y="204" type="line"/>
      <point x="55" y="291" type="line"/>
      <point x="340" y="291" type="line"/>
    </contour>
  </outline>
</glyph>
<glyph name="greater" format="1">
  <advance width="260"/>
  <unicode hex="003E"/>
  <outline>
    <contour>
      <point x="237" y="303" type="line"/>
      <point x="31" y="120" type="line"/>
      <point x="31" y="231" type="line"/>
      <point x="165" y="343" type="line"/>
      <point x="31" y="456" type="line"/>
      <point x="31" y="568" type="line"/>
      <point x="237" y="385" type="line"/>
    </contour>
  </outline>
</glyph>
<glyph name="question" format="1">
  <advance width="320"/>
  <unicode hex="003F"/>
  <outline>
    <contour>
      <point x="296" y="555" type="curve" smooth="yes"/>
      <point x="296" y="482"/>
      <point x="280" y="444"/>
      <point x="235" y="383" type="curve" smooth="yes"/>
      <point x="188" y="319"/>
      <point x="180" y="287"/>
      <point x="180" y="182" type="curve"/>
      <point x="98" y="182" type="line"/>
      <point x="98" y="299"/>
      <point x="108" y="349"/>
      <point x="163" y="424" type="curve" smooth="yes"/>
      <point x="199" y="472"/>
      <point x="208" y="497"/>
      <point x="208" y="544" type="curve" smooth="yes"/>
      <point x="208" y="593"/>
      <point x="192" y="624"/>
      <point x="155" y="624" type="curve" smooth="yes"/>
      <point x="120" y="624"/>
      <point x="104" y="598"/>
      <point x="86" y="539" type="curve"/>
      <point x="11" y="575" type="line"/>
      <point x="32" y="655"/>
      <point x="80" y="711"/>
      <point x="157" y="711" type="curve" smooth="yes"/>
      <point x="248" y="711"/>
      <point x="296" y="647"/>
    </contour>
    <contour>
      <point x="197" y="47" type="curve" smooth="yes"/>
      <point x="197" y="14"/>
      <point x="173" y="-11"/>
      <point x="139" y="-11" type="curve" smooth="yes"/>
      <point x="106" y="-11"/>
      <point x="82" y="14"/>
      <point x="82" y="47" type="curve" smooth="yes"/>
      <point x="82" y="80"/>
      <point x="106" y="105"/>
      <point x="139" y="105" type="curve" smooth="yes"/>
      <point x="173" y="105"/>
      <point x="197" y="80"/>
    </contour>
  </outline>
</glyph>
<glyph name="at" format="1">
  <advance width="483"/>
  <unicode hex="0040"/>
  <outline>
    <contour>
      <point x="451" y="360" type="curve" smooth="yes"/>
      <point x="451" y="200"/>
      <point x="418" y="154"/>
      <point x="361" y="154" type="curve" smooth="yes"/>
      <point x="327" y="154"/>
      <point x="308" y="168"/>
      <point x="294" y="189" type="curve"/>
      <point x="272" y="165"/>
      <point x="252" y="152"/>
      <point x="222" y="152" type="curve" smooth="yes"/>
      <point x="172" y="152"/>
      <point x="148" y="197"/>
      <point x="148" y="282" type="curve" smooth="yes"/>
      <point x="148" y="371"/>
      <point x="177" y="413"/>
      <point x="229" y="413" type="curve" smooth="yes"/>
      <point x="248" y="413"/>
      <point x="258" y="409"/>
      <point x="270" y="400" type="curve"/>
      <point x="270" y="457" type="line" smooth="yes"/>
      <point x="270" y="491"/>
      <point x="264" y="505"/>
      <point x="238" y="505" type="curve" smooth="yes"/>
      <point x="222" y="505"/>
      <point x="207" y="497"/>
      <point x="185" y="478" type="curve"/>
      <point x="159" y="518" type="line"/>
      <point x="183" y="544"/>
      <point x="215" y="561"/>
      <point x="247" y="561" type="curve" smooth="yes"/>
      <point x="298" y="561"/>
      <point x="325" y="538"/>
      <point x="325" y="463" type="curve" smooth="yes"/>
      <point x="325" y="264" type="line" smooth="yes"/>
      <point x="325" y="223"/>
      <point x="335" y="202"/>
      <point x="360" y="202" type="curve" smooth="yes"/>
      <point x="387" y="202"/>
      <point x="400" y="237"/>
      <point x="400" y="361" type="curve" smooth="yes"/>
      <point x="400" y="557"/>
      <point x="340" y="663"/>
      <point x="242" y="663" type="curve" smooth="yes"/>
      <point x="135" y="663"/>
      <point x="83" y="549"/>
      <point x="83" y="351" type="curve" smooth="yes"/>
      <point x="83" y="152"/>
      <point x="134" y="37"/>
      <point x="245" y="37" type="curve" smooth="yes"/>
      <point x="274" y="37"/>
      <point x="302" y="49"/>
      <point x="323" y="66" type="curve"/>
      <point x="346" y="27" type="line"/>
      <point x="318" y="4"/>
      <point x="281" y="-11"/>
      <point x="242" y="-11" type="curve" smooth="yes"/>
      <point x="110" y="-11"/>
      <point x="32" y="124"/>
      <point x="32" y="350" type="curve" smooth="yes"/>
      <point x="32" y="576"/>
      <point x="110" y="711"/>
      <point x="242" y="711" type="curve" smooth="yes"/>
      <point x="375" y="711"/>
      <point x="451" y="568"/>
    </contour>
    <contour>
      <point x="270" y="226" type="curve"/>
      <point x="270" y="348" type="line"/>
      <point x="260" y="355"/>
      <point x="254" y="359"/>
      <point x="238" y="359" type="curve" smooth="yes"/>
      <point x="212" y="359"/>
      <point x="204" y="335"/>
      <point x="204" y="283" type="curve" smooth="yes"/>
      <point x="204" y="232"/>
      <point x="213" y="206"/>
      <point x="236" y="206" type="curve" smooth="yes"/>
      <point x="249" y="206"/>
      <point x="261" y="214"/>
    </contour>
  </outline>
</glyph>
<glyph name="A" format="1">
  <advance width="359"/>
  <unicode hex="0041"/>
  <outline>
    <contour>
      <point x="342" y="0" type="line"/>
      <point x="249" y="0" type="line"/>
      <point x="226" y="168" type="line"/>
      <point x="130" y="168" type="line"/>
      <point x="108" y="0" type="line"/>
      <point x="17" y="0" type="line"/>
      <point x="131" y="700" type="line"/>
      <point x="229" y="700" type="line"/>
    </contour>
    <contour>
      <point x="214" y="255" type="line"/>
      <point x="188" y="450" type="line" smooth="yes"/>
      <point x="184" y="483"/>
      <point x="180" y="514"/>
      <point x="177" y="547" type="curve"/>
      <point x="174" y="514"/>
      <point x="170" y="483"/>
      <point x="166" y="449" type="curve" smooth="yes"/>
      <point x="141" y="255" type="line"/>
    </contour>
  </outline>
</glyph>
<glyph name="B" format="1">
  <advance width="373"/>
  <unicode hex="0042"/>
  <outline>
    <contour>
      <point x="339" y="205" type="curve" smooth="yes"/>
      <point x="339" y="76"/>
      <point x="282" y="0"/>
      <point x="170" y="0" type="curve" smooth="yes"/>
      <point x="55" y="0" type="line"/>
      <point x="55" y="700" type="line"/>
      <point x="170" y="700" type="line" smooth="yes"/>
      <point x="273" y="700"/>
      <point x="333" y="641"/>
      <point x="333" y="513" type="curve" smooth="yes"/>
      <point x="333" y="436"/>
      <point x="305" y="390"/>
      <point x="255" y="364" type="curve"/>
      <point x="306" y="339"/>
      <point x="339" y="295"/>
    </contour>
    <contour>
      <point x="243" y="512" type="curve" smooth="yes"/>
      <point x="243" y="587"/>
      <point x="218" y="615"/>
      <point x="174" y="615" type="curve" smooth="yes"/>
      <point x="143" y="615" type="line"/>
      <point x="143" y="403" type="line"/>
      <point x="173" y="403" type="line" smooth="yes"/>
      <point x="215" y="403"/>
      <point x="243" y="430"/>
    </contour>
    <contour>
      <point x="249" y="205" type="curve" smooth="yes"/>
      <point x="249" y="290"/>
      <point x="223" y="323"/>
      <point x="169" y="323" type="curve" smooth="yes"/>
      <point x="143" y="323" type="line"/>
      <point x="143" y="85" type="line"/>
      <point x="173" y="85" type="line" smooth="yes"/>
      <point x="229" y="85"/>
      <point x="249" y="122"/>
    </contour>
  </outline>
</glyph>
<glyph name="C" format="1">
  <advance width="358"/>
  <unicode hex="0043"/>
  <outline>
    <contour>
      <point x="331" y="184" type="line"/>
      <point x="317" y="71"/>
      <point x="291" y="-11"/>
      <point x="186" y="-11" type="curve" smooth="yes"/>
      <point x="68" y="-11"/>
      <point x="36" y="109"/>
      <point x="36" y="348" type="curve" smooth="yes"/>
      <point x="36" y="588"/>
      <point x="66" y="711"/>
      <point x="188" y="711" type="curve" smooth="yes"/>
      <point x="285" y="711"/>
      <point x="324" y="627"/>
      <point x="329" y="512" type="curve"/>
      <point x="239" y="500" type="line"/>
      <point x="234" y="579"/>
      <point x="220" y="621"/>
      <point x="187" y="621" type="curve" smooth="yes"/>
      <point x="145" y="621"/>
      <point x="128" y="577"/>
      <point x="128" y="352" type="curve" smooth="yes"/>
      <point x="128" y="131"/>
      <point x="146" y="79"/>
      <point x="191" y="79" type="curve" smooth="yes"/>
      <point x="221" y="79"/>
      <point x="233" y="110"/>
      <point x="243" y="196" type="curve"/>
    </contour>
  </outline>
</glyph>
<glyph name="D" format="1">
  <advance width="379"/>
  <unicode hex="0044"/>
  <outline>
    <contour>
      <point x="344" y="355" type="curve" smooth="yes"/>
      <point x="344" y="115"/>
      <point x="289" y="0"/>
      <point x="166" y="0" type="curve" smooth="yes"/>
      <point x="55" y="0" type="line"/>
      <point x="55" y="700" type="line"/>
      <point x="176" y="700" type="line" smooth="yes"/>
      <point x="308" y="700"/>
      <point x="344" y="572"/>
    </contour>
    <contour>
      <point x="252" y="355" type="curve" smooth="yes"/>
      <point x="252" y="555"/>
      <point x="226" y="613"/>
      <point x="171" y="613" type="curve" smooth="yes"/>
      <point x="145" y="613" type="line"/>
      <point x="145" y="86" type="line"/>
      <point x="169" y="86" type="line" smooth="yes"/>
      <point x="221" y="86"/>
      <point x="252" y="145"/>
    </contour>
  </outline>
</glyph>
<glyph name="E" format="1">
  <advance width="333"/>
  <unicode hex="0045"/>
  <outline>
    <contour>
      <point x="311" y="0" type="line"/>
      <point x="55" y="0" type="line"/>
      <point x="55" y="700" type="line"/>
      <point x="299" y="700" type="line"/>
      <point x="299" y="612" type="line"/>
      <point x="145" y="612" type="line"/>
      <point x="145" y="413" type="line"/>
      <point x="264" y="413" type="line"/>
      <point x="264" y="325" type="line"/>
      <point x="145" y="325" type="line"/>
      <point x="145" y="88" type="line"/>
      <point x="311" y="88" type="line"/>
    </contour>
  </outline>
</glyph>
<glyph name="F" format="1">
  <advance width="328"/>
  <unicode hex="0046"/>
  <outline>
    <contour>
      <point x="307" y="612" type="line"/>
      <point x="145" y="612" type="line"/>
      <point x="145" y="413" type="line"/>
      <point x="264" y="413" type="line"/>
      <point x="264" y="325" type="line"/>
      <point x="145" y="325" type="line"/>
      <point x="145" y="0" type="line"/>
      <point x="55" y="0" type="line"/>
      <point x="55" y="700" type="line"/>
      <point x="307" y="700" type="line"/>
    </contour>
  </outline>
</glyph>
<glyph name="G" format="1">
  <advance width="372"/>
  <unicode hex="0047"/>
  <outline>
    <contour>
      <point x="336" y="203" type="line" smooth="yes"/>
      <point x="336" y="94"/>
      <point x="304" y="-11"/>
      <point x="189" y="-11" type="curve" smooth="yes"/>
      <point x="60" y="-11"/>
      <point x="36" y="131"/>
      <point x="36" y="350" type="curve" smooth="yes"/>
      <point x="36" y="588"/>
      <point x="66" y="711"/>
      <point x="188" y="711" type="curve" smooth="yes"/>
      <point x="284" y="711"/>
      <point x="323" y="629"/>
      <point x="329" y="512" type="curve"/>
      <point x="239" y="500" type="line"/>
      <point x="234" y="579"/>
      <point x="221" y="621"/>
      <point x="188" y="621" type="curve" smooth="yes"/>
      <point x="143" y="621"/>
      <point x="128" y="572"/>
      <point x="128" y="350" type="curve" smooth="yes"/>
      <point x="128" y="155"/>
      <point x="141" y="78"/>
      <point x="191" y="78" type="curve" smooth="yes"/>
      <point x="230" y="78"/>
      <point x="248" y="111"/>
      <point x="248" y="197" type="curve" smooth="yes"/>
      <point x="248" y="276" type="line"/>
      <point x="188" y="276" type="line"/>
      <point x="188" y="363" type="line"/>
      <point x="336" y="363" type="line"/>
    </contour>
  </outline>
</glyph>
<glyph name="H" format="1">
  <advance width="405"/>
  <unicode hex="0048"/>
  <outline>
    <contour>
      <point x="349" y="0" type="line"/>
      <point x="259" y="0" type="line"/>
      <point x="259" y="331" type="line"/>
      <point x="145" y="331" type="line"/>
      <point x="145" y="0" type="line"/>
      <point x="55" y="0" type="line"/>
      <point x="55" y="700" type="line"/>
      <point x="145" y="700" type="line"/>
      <point x="145" y="419" type="line"/>
      <point x="259" y="419" type="line"/>
      <point x="259" y="700" type="line"/>
      <point x="349" y="700" type="line"/>
    </contour>
  </outline>
</glyph>
<glyph name="I" format="1">
  <advance width="206"/>
  <unicode hex="0049"/>
  <outline>
    <contour>
      <point x="148" y="0" type="line"/>
      <point x="58" y="0" type="line"/>
      <point x="58" y="700" type="line"/>
      <point x="148" y="700" type="line"/>
    </contour>
  </outline>
</glyph>
<glyph name="J" format="1">
  <advance width="340"/>
  <unicode hex="004A"/>
  <outline>
    <contour>
      <point x="287" y="177" type="line" smooth="yes"/>
      <point x="287" y="45"/>
      <point x="239" y="-11"/>
      <point x="152" y="-11" type="curve" smooth="yes"/>
      <point x="51" y="-11"/>
      <point x="21" y="68"/>
      <point x="14" y="167" type="curve"/>
      <point x="98" y="186" type="line"/>
      <point x="106" y="106"/>
      <point x="122" y="79"/>
      <point x="154" y="79" type="curve" smooth="yes"/>
      <point x="185" y="79"/>
      <point x="197" y="104"/>
      <point x="197" y="176" type="curve" smooth="yes"/>
      <point x="197" y="700" type="line"/>
      <point x="287" y="700" type="line"/>
    </contour>
  </outline>
</glyph>
<glyph name="K" format="1">
  <advance width="353"/>
  <unicode hex="004B"/>
  <outline>
    <contour>
      <point x="337" y="0" type="line"/>
      <point x="245" y="0" type="line"/>
      <point x="165" y="337" type="line"/>
      <point x="143" y="282" type="line"/>
      <point x="143" y="0" type="line"/>
      <point x="55" y="0" type="line"/>
      <point x="55" y="700" type="line"/>
      <point x="143" y="700" type="line"/>
      <point x="143" y="533" type="line" smooth="yes"/>
      <point x="143" y="494"/>
      <point x="142" y="448"/>
      <point x="142" y="417" type="curve"/>
      <point x="151" y="447"/>
      <point x="173" y="512"/>
      <point x="184" y="541" type="curve" smooth="yes"/>
      <point x="242" y="700" type="line"/>
      <point x="335" y="700" type="line"/>
      <point x="227" y="440" type="line"/>
    </contour>
  </outline>
</glyph>
<glyph name="L" format="1">
  <advance width="305"/>
  <unicode hex="004C"/>
  <outline>
    <contour>
      <point x="285" y="0" type="line"/>
      <point x="55" y="0" type="line"/>
      <point x="55" y="700" type="line"/>
      <point x="145" y="700" type="line"/>
      <point x="145" y="88" type="line"/>
      <point x="285" y="88" type="line"/>
    </contour>
  </outline>
</glyph>
<glyph name="M" format="1">
  <advance width="475"/>
  <unicode hex="004D"/>
  <outline>
    <contour>
      <point x="420" y="0" type="line"/>
      <point x="338" y="0" type="line"/>
      <point x="338" y="214" type="line" smooth="yes"/>
      <point x="338" y="303"/>
      <point x="342" y="390"/>
      <point x="342" y="470" type="curve"/>
      <point x="333" y="416"/>
      <point x="310" y="302"/>
      <point x="295" y="236" type="curve" smooth="yes"/>
      <point x="237" y="-21" type="line"/>
      <point x="180" y="236" type="line" smooth="yes"/>
      <point x="166" y="298"/>
      <point x="142" y="419"/>
      <point x="133" y="470" type="curve"/>
      <point x="133" y="399"/>
      <point x="137" y="299"/>
      <point x="137" y="214" type="curve" smooth="yes"/>
      <point x="137" y="0" type="line"/>
      <point x="55" y="0" type="line"/>
      <point x="55" y="700" type="line"/>
      <point x="152" y="700" type="line"/>
      <point x="206" y="441" type="line" smooth="yes"/>
      <point x="217" y="389"/>
      <point x="232" y="311"/>
      <point x="237" y="255" type="curve"/>
      <point x="242" y="311"/>
      <point x="257" y="391"/>
      <point x="268" y="442" type="curve" smooth="yes"/>
      <point x="323" y="700" type="line"/>
      <point x="420" y="700" type="line"/>
    </contour>
  </outline>
</glyph>
<glyph name="N" format="1">
  <advance width="404"/>
  <unicode hex="004E"/>
  <outline>
    <contour>
      <point x="349" y="0" type="line"/>
      <point x="285" y="0" type="line"/>
      <point x="202" y="260" type="line" smooth="yes"/>
      <point x="183" y="320"/>
      <point x="153" y="422"/>
      <point x="138" y="478" type="curve"/>
      <point x="138" y="423"/>
      <point x="140" y="321"/>
      <point x="140" y="270" type="curve" smooth="yes"/>
      <point x="140" y="0" type="line"/>
      <point x="55" y="0" type="line"/>
      <point x="55" y="700" type="line"/>
      <point x="140" y="700" type="line"/>
      <point x="213" y="474" type="line" smooth="yes"/>
      <point x="226" y="434"/>
      <point x="251" y="351"/>
      <point x="265" y="295" type="curve"/>
      <point x="265" y="345"/>
      <point x="264" y="436"/>
      <point x="264" y="473" type="curve" smooth="yes"/>
      <point x="264" y="700" type="line"/>
      <point x="349" y="700" type="line"/>
    </contour>
  </outline>
</glyph>
<glyph name="O" format="1">
  <advance width="376"/>
  <unicode hex="004F"/>
  <outline>
    <contour>
      <point x="340" y="352" type="curve" smooth="yes"/>
      <point x="340" y="122"/>
      <point x="313" y="-11"/>
      <point x="186" y="-11" type="curve" smooth="yes"/>
      <point x="64" y="-11"/>
      <point x="36" y="119"/>
      <point x="36" y="348" type="curve" smooth="yes"/>
      <point x="36" y="578"/>
      <point x="63" y="711"/>
      <point x="187" y="711" type="curve" smooth="yes"/>
      <point x="312" y="711"/>
      <point x="340" y="576"/>
    </contour>
    <contour>
      <point x="248" y="347" type="curve" smooth="yes"/>
      <point x="248" y="563"/>
      <point x="229" y="621"/>
      <point x="186" y="621" type="curve" smooth="yes"/>
      <point x="142" y="621"/>
      <point x="128" y="564"/>
      <point x="128" y="353" type="curve" smooth="yes"/>
      <point x="128" y="137"/>
      <point x="145" y="79"/>
      <point x="189" y="79" type="curve" smooth="yes"/>
      <point x="232" y="79"/>
      <point x="248" y="136"/>
    </contour>
  </outline>
</glyph>
<glyph name="P" format="1">
  <advance width="360"/>
  <unicode hex="0050"/>
  <outline>
    <contour>
      <point x="337" y="506" type="curve" smooth="yes"/>
      <point x="337" y="363"/>
      <point x="264" y="302"/>
      <point x="179" y="302" type="curve" smooth="yes"/>
      <point x="145" y="302" type="line"/>
      <point x="145" y="0" type="line"/>
      <point x="55" y="0" type="line"/>
      <point x="55" y="700" type="line"/>
      <point x="183" y="700" type="line" smooth="yes"/>
      <point x="268" y="700"/>
      <point x="337" y="651"/>
    </contour>
    <contour>
      <point x="246" y="501" type="curve" smooth="yes"/>
      <point x="246" y="582"/>
      <point x="226" y="615"/>
      <point x="182" y="615" type="curve" smooth="yes"/>
      <point x="145" y="615" type="line"/>
      <point x="145" y="387" type="line"/>
      <point x="177" y="387" type="line" smooth="yes"/>
      <point x="220" y="387"/>
      <point x="246" y="422"/>
    </contour>
  </outline>
</glyph>
<glyph name="Q" format="1">
  <advance width="376"/>
  <unicode hex="0051"/>
  <outline>
    <contour>
      <point x="340" y="352" type="curve" smooth="yes"/>
      <point x="340" y="227"/>
      <point x="328" y="130"/>
      <point x="299" y="68" type="curve"/>
      <point x="335" y="30" type="line"/>
      <point x="290" y="-11" type="line"/>
      <point x="265" y="19" type="line"/>
      <point x="244" y="-1"/>
      <point x="218" y="-11"/>
      <point x="186" y="-11" type="curve" smooth="yes"/>
      <point x="64" y="-11"/>
      <point x="36" y="119"/>
      <point x="36" y="348" type="curve" smooth="yes"/>
      <point x="36" y="578"/>
      <point x="63" y="711"/>
      <point x="187" y="711" type="curve" smooth="yes"/>
      <point x="312" y="711"/>
      <point x="340" y="576"/>
    </contour>
    <contour>
      <point x="248" y="347" type="curve" smooth="yes"/>
      <point x="248" y="563"/>
      <point x="229" y="621"/>
      <point x="186" y="621" type="curve" smooth="yes"/>
      <point x="142" y="621"/>
      <point x="128" y="564"/>
      <point x="128" y="353" type="curve" smooth="yes"/>
      <point x="128" y="137"/>
      <point x="145" y="74"/>
      <point x="189" y="74" type="curve" smooth="yes"/>
      <point x="199" y="74"/>
      <point x="207" y="75"/>
      <point x="214" y="80" type="curve"/>
      <point x="175" y="125" type="line"/>
      <point x="217" y="163" type="line"/>
      <point x="239" y="136" type="line"/>
      <point x="246" y="176"/>
      <point x="248" y="242"/>
    </contour>
  </outline>
</glyph>
<glyph name="R" format="1">
  <advance width="378"/>
  <unicode hex="0052"/>
  <outline>
    <contour>
      <point x="345" y="0" type="line"/>
      <point x="252" y="0" type="line"/>
      <point x="186" y="315" type="line"/>
      <point x="145" y="315" type="line"/>
      <point x="145" y="0" type="line"/>
      <point x="55" y="0" type="line"/>
      <point x="55" y="700" type="line"/>
      <point x="182" y="700" type="line" smooth="yes"/>
      <point x="267" y="700"/>
      <point x="337" y="657"/>
      <point x="337" y="511" type="curve" smooth="yes"/>
      <point x="337" y="427"/>
      <point x="313" y="371"/>
      <point x="271" y="341" type="curve"/>
    </contour>
    <contour>
      <point x="246" y="506" type="curve" smooth="yes"/>
      <point x="246" y="587"/>
      <point x="226" y="615"/>
      <point x="182" y="615" type="curve" smooth="yes"/>
      <point x="145" y="615" type="line"/>
      <point x="145" y="397" type="line"/>
      <point x="177" y="397" type="line" smooth="yes"/>
      <point x="220" y="397"/>
      <point x="246" y="427"/>
    </contour>
  </outline>
</glyph>
<glyph name="S" format="1">
  <advance width="343"/>
  <unicode hex="0053"/>
  <outline>
    <contour>
      <point x="312" y="154" type="curve" smooth="yes"/>
      <point x="312" y="60"/>
      <point x="261" y="-11"/>
      <point x="174" y="-11" type="curve" smooth="yes"/>
      <point x="88" y="-11"/>
      <point x="38" y="50"/>
      <point x="27" y="170" type="curve"/>
      <point x="114" y="184" type="line"/>
      <point x="123" y="106"/>
      <point x="144" y="82"/>
      <point x="174" y="82" type="curve" smooth="yes"/>
      <point x="206" y="82"/>
      <point x="222" y="103"/>
      <point x="222" y="146" type="curve" smooth="yes"/>
      <point x="222" y="212"/>
      <point x="200" y="248"/>
      <point x="131" y="333" type="curve" smooth="yes"/>
      <point x="75" y="403"/>
      <point x="32" y="473"/>
      <point x="32" y="553" type="curve" smooth="yes"/>
      <point x="32" y="641"/>
      <point x="77" y="711"/>
      <point x="166" y="711" type="curve" smooth="yes"/>
      <point x="257" y="711"/>
      <point x="294" y="644"/>
      <point x="307" y="552" type="curve"/>
      <point x="221" y="533" type="line"/>
      <point x="211" y="592"/>
      <point x="196" y="620"/>
      <point x="167" y="620" type="curve" smooth="yes"/>
      <point x="139" y="620"/>
      <point x="123" y="600"/>
      <point x="123" y="555" type="curve" smooth="yes"/>
      <point x="123" y="506"/>
      <point x="142" y="472"/>
      <point x="197" y="404" type="curve" smooth="yes"/>
      <point x="266" y="319"/>
      <point x="312" y="243"/>
    </contour>
  </outline>
</glyph>
<glyph name="T" format="1">
  <advance width="322"/>
  <unicode hex="0054"/>
  <outline>
    <contour>
      <point x="305" y="612" type="line"/>
      <point x="206" y="612" type="line"/>
      <point x="206" y="0" type="line"/>
      <point x="116" y="0" type="line"/>
      <point x="116" y="612" type="line"/>
      <point x="17" y="612" type="line"/>
      <point x="17" y="700" type="line"/>
      <point x="305" y="700" type="line"/>
    </contour>
  </outline>
</glyph>
<glyph name="U" format="1">
  <advance width="400"/>
  <unicode hex="0055"/>
  <outline>
    <contour>
      <point x="347" y="169" type="line" smooth="yes"/>
      <point x="347" y="54"/>
      <point x="299" y="-11"/>
      <point x="200" y="-11" type="curve" smooth="yes"/>
      <point x="108" y="-11"/>
      <point x="53" y="56"/>
      <point x="53" y="163" type="curve" smooth="yes"/>
      <point x="53" y="700" type="line"/>
      <point x="143" y="700" type="line"/>
      <point x="143" y="168" type="line" smooth="yes"/>
      <point x="143" y="104"/>
      <point x="163" y="79"/>
      <point x="201" y="79" type="curve" smooth="yes"/>
      <point x="242" y="79"/>
      <point x="257" y="104"/>
      <point x="257" y="167" type="curve" smooth="yes"/>
      <point x="257" y="700" type="line"/>
      <point x="347" y="700" type="line"/>
    </contour>
  </outline>
</glyph>
<glyph name="V" format="1">
  <advance width="357"/>
  <unicode hex="0056"/>
  <outline>
    <contour>
      <point x="340" y="700" type="line"/>
      <point x="222" y="0" type="line"/>
      <point x="134" y="0" type="line"/>
      <point x="17" y="700" type="line"/>
      <point x="112" y="700" type="line"/>
      <point x="171" y="260" type="line" smooth="yes"/>
      <point x="175" y="227"/>
      <point x="178" y="196"/>
      <point x="181" y="163" type="curve"/>
      <point x="184" y="196"/>
      <point x="187" y="227"/>
      <point x="191" y="261" type="curve" smooth="yes"/>
      <point x="245" y="700" type="line"/>
    </contour>
  </outline>
</glyph>
<glyph name="W" format="1">
  <advance width="458"/>
  <unicode hex="0057"/>
  <outline>
    <contour>
      <point x="441" y="700" type="line"/>
      <point x="351" y="0" type="line"/>
      <point x="286" y="0" type="line"/>
      <point x="251" y="235" type="line" smooth="yes"/>
      <point x="245" y="274"/>
      <point x="234" y="368"/>
      <point x="229" y="417" type="curve"/>
      <point x="224" y="368"/>
      <point x="214" y="280"/>
      <point x="207" y="236" type="curve" smooth="yes"/>
      <point x="172" y="0" type="line"/>
      <point x="107" y="0" type="line"/>
      <point x="17" y="700" type="line"/>
      <point x="101" y="700" type="line"/>
      <point x="133" y="397" type="line" smooth="yes"/>
      <point x="137" y="358"/>
      <point x="143" y="289"/>
      <point x="147" y="243" type="curve"/>
      <point x="151" y="289"/>
      <point x="157" y="357"/>
      <point x="162" y="397" type="curve" smooth="yes"/>
      <point x="197" y="700" type="line"/>
      <point x="261" y="700" type="line"/>
      <point x="296" y="397" type="line" smooth="yes"/>
      <point x="301" y="357"/>
      <point x="307" y="289"/>
      <point x="311" y="243" type="curve"/>
      <point x="315" y="289"/>
      <point x="321" y="358"/>
      <point x="325" y="397" type="curve" smooth="yes"/>
      <point x="357" y="700" type="line"/>
    </contour>
  </outline>
</glyph>
<glyph name="X" format="1">
  <advance width="332"/>
  <unicode hex="0058"/>
  <outline>
    <contour>
      <point x="318" y="0" type="line"/>
      <point x="224" y="0" type="line"/>
      <point x="192" y="124" type="line" smooth="yes"/>
      <point x="181" y="168"/>
      <point x="172" y="212"/>
      <point x="165" y="249" type="curve"/>
      <point x="158" y="213"/>
      <point x="149" y="168"/>
      <point x="137" y="123" type="curve" smooth="yes"/>
      <point x="105" y="0" type="line"/>
      <point x="14" y="0" type="line"/>
      <point x="123" y="359" type="line"/>
      <point x="21" y="700" type="line"/>
      <point x="115" y="700" type="line"/>
      <point x="143" y="591" type="line" smooth="yes"/>
      <point x="151" y="561"/>
      <point x="161" y="517"/>
      <point x="167" y="474" type="curve"/>
      <point x="173" y="517"/>
      <point x="185" y="562"/>
      <point x="192" y="590" type="curve" smooth="yes"/>
      <point x="221" y="700" type="line"/>
      <point x="311" y="700" type="line"/>
      <point x="209" y="365" type="line"/>
    </contour>
  </outline>
</glyph>
<glyph name="Y" format="1">
  <advance width="358"/>
  <unicode hex="0059"/>
  <outline>
    <contour>
      <point x="348" y="700" type="line"/>
      <point x="229" y="308" type="line"/>
      <point x="229" y="0" type="line"/>
      <point x="139" y="0" type="line"/>
      <point x="139" y="303" type="line"/>
      <point x="10" y="700" type="line"/>
      <point x="111" y="700" type="line"/>
      <point x="157" y="523" type="line" smooth="yes"/>
      <point x="166" y="489"/>
      <point x="179" y="426"/>
      <point x="185" y="386" type="curve"/>
      <point x="190" y="426"/>
      <point x="203" y="490"/>
      <point x="211" y="523" type="curve" smooth="yes"/>
      <point x="252" y="700" type="line"/>
    </contour>
  </outline>
</glyph>
<glyph name="Z" format="1">
  <advance width="314"/>
  <unicode hex="005A"/>
  <outline>
    <contour>
      <point x="282" y="0" type="line"/>
      <point x="32" y="0" type="line"/>
      <point x="32" y="82" type="line"/>
      <point x="162" y="507" type="line" smooth="yes"/>
      <point x="172" y="540"/>
      <point x="191" y="594"/>
      <point x="199" y="616" type="curve"/>
      <point x="183" y="616"/>
      <point x="153" y="615"/>
      <point x="124" y="615" type="curve" smooth="yes"/>
      <point x="44" y="615" type="line"/>
      <point x="44" y="700" type="line"/>
      <point x="282" y="700" type="line"/>
      <point x="282" y="618" type="line"/>
      <point x="153" y="198" type="line" smooth="yes"/>
      <point x="142" y="162"/>
      <point x="123" y="108"/>
      <point x="115" y="84" type="curve"/>
      <point x="131" y="84"/>
      <point x="156" y="85"/>
      <point x="185" y="85" type="curve" smooth="yes"/>
      <point x="282" y="85" type="line"/>
    </contour>
  </outline>
</glyph>
<glyph name="bracketleft" format="1">
  <advance width="270"/>
  <unicode hex="005B"/>
  <outline>
    <contour>
      <point x="228" y="-93" type="line"/>
      <point x="55" y="-93" type="line"/>
      <point x="55" y="700" type="line"/>
      <point x="228" y="700" type="line"/>
      <point x="228" y="621" type="line"/>
      <point x="141" y="621" type="line"/>
      <point x="141" y="-14" type="line"/>
      <point x="228" y="-14" type="line"/>
    </contour>
  </outline>
</glyph>
<glyph name="bracketright" format="1">
  <advance width="270"/>
  <unicode hex="005D"/>
  <outline>
    <contour>
      <point x="215" y="-93" type="line"/>
      <point x="42" y="-93" type="line"/>
      <point x="42" y="-14" type="line"/>
      <point x="129" y="-14" type="line"/>
      <point x="129" y="621" type="line"/>
      <point x="42" y="621" type="line"/>
      <point x="42" y="700" type="line"/>
      <point x="215" y="700" type="line"/>
    </contour>
  </outline>
</glyph>
<glyph name="asciicircum" format="1">
  <advance width="340"/>
  <unicode hex="005E"/>
  <outline>
    <contour>
      <point x="317" y="382" type="line"/>
      <point x="220" y="382" type="line"/>
      <point x="169" y="593" type="line"/>
      <point x="119" y="382" type="line"/>
      <point x="23" y="382" type="line"/>
      <point x="132" y="700" type="line"/>
      <point x="208" y="700" type="line"/>
    </contour>
  </outline>
</glyph>
<glyph name="underscore" format="1">
  <advance width="245"/>
  <unicode hex="005F"/>
  <outline>
    <contour>
      <point x="245" y="-162" type="line"/>
      <point x="0" y="-162" type="line"/>
      <point x="0" y="-82" type="line"/>
      <point x="245" y="-82" type="line"/>
    </contour>
  </outline>
</glyph>
<glyph name="grave" format="1">
  <advance width="330"/>
  <unicode hex="0060"/>
  <outline>
    <contour>
      <point x="239" y="592" type="line"/>
      <point x="178" y="592" type="line"/>
      <point x="58" y="752" type="line"/>
      <point x="165" y="752" type="line"/>
    </contour>
  </outline>
</glyph>
<glyph name="a" format="1">
  <advance width="331"/>
  <unicode hex="0061"/>
  <outline>
    <contour>
      <point x="290" y="0" type="line"/>
      <point x="206" y="0" type="line"/>
      <point x="206" y="25" type="line"/>
      <point x="186" y="1"/>
      <point x="166" y="-11"/>
      <point x="134" y="-11" type="curve" smooth="yes"/>
      <point x="66" y="-11"/>
      <point x="24" y="49"/>
      <point x="24" y="162" type="curve" smooth="yes"/>
      <point x="24" y="274"/>
      <point x="66" y="338"/>
      <point x="144" y="338" type="curve" smooth="yes"/>
      <point x="172" y="338"/>
      <point x="192" y="330"/>
      <point x="206" y="320" type="curve"/>
      <point x="206" y="390" type="line" smooth="yes"/>
      <point x="206" y="437"/>
      <point x="191" y="452"/>
      <point x="158" y="452" type="curve" smooth="yes"/>
      <point x="133" y="452"/>
      <point x="117" y="438"/>
      <point x="92" y="413" type="curve"/>
      <point x="44" y="473" type="line"/>
      <point x="79" y="510"/>
      <point x="123" y="536"/>
      <point x="171" y="536" type="curve" smooth="yes"/>
      <point x="249" y="536"/>
      <point x="290" y="499"/>
      <point x="290" y="396" type="curve" smooth="yes"/>
    </contour>
    <contour>
      <point x="206" y="93" type="curve"/>
      <point x="206" y="244" type="line"/>
      <point x="192" y="253"/>
      <point x="180" y="257"/>
      <point x="156" y="257" type="curve" smooth="yes"/>
      <point x="121" y="257"/>
      <point x="106" y="227"/>
      <point x="106" y="164" type="curve" smooth="yes"/>
      <point x="106" y="103"/>
      <point x="121" y="70"/>
      <point x="159" y="70" type="curve" smooth="yes"/>
      <point x="175" y="70"/>
      <point x="194" y="78"/>
    </contour>
  </outline>
</glyph>
<glyph name="c" format="1">
  <advance width="318"/>
  <unicode hex="0063"/>
  <outline>
    <contour>
      <point x="294" y="124" type="line"/>
      <point x="275" y="39"/>
      <point x="237" y="-11"/>
      <point x="171" y="-11" type="curve" smooth="yes"/>
      <point x="84" y="-11"/>
      <point x="31" y="65"/>
      <point x="31" y="259" type="curve" smooth="yes"/>
      <point x="31" y="455"/>
      <point x="75" y="536"/>
      <point x="176" y="536" type="curve" smooth="yes"/>
      <point x="251" y="536"/>
      <point x="282" y="468"/>
      <point x="293" y="397" type="curve"/>
      <point x="216" y="366" type="line"/>
      <point x="208" y="413"/>
      <point x="199" y="451"/>
      <point x="171" y="451" type="curve" smooth="yes"/>
      <point x="123" y="451"/>
      <point x="116" y="369"/>
      <point x="116" y="261" type="curve" smooth="yes"/>
      <point x="116" y="144"/>
      <point x="123" y="74"/>
      <point x="172" y="74" type="curve" smooth="yes"/>
      <point x="197" y="74"/>
      <point x="209" y="100"/>
      <point x="222" y="154" type="curve"/>
    </contour>
  </outline>
</glyph>
<glyph name="e" format="1">
  <advance width="329"/>
  <unicode hex="0065"/>
  <outline>
    <contour>
      <point x="300" y="233" type="curve"/>
      <point x="111" y="233" type="line"/>
      <point x="114" y="123"/>
      <point x="132" y="74"/>
      <point x="171" y="74" type="curve" smooth="yes"/>
      <point x="199" y="74"/>
      <point x="208" y="92"/>
      <point x="226" y="137" type="curve"/>
      <point x="296" y="104" type="line"/>
      <point x="271" y="35"/>
      <point x="241" y="-11"/>
      <point x="167" y="-11" type="curve" smooth="yes"/>
      <point x="61" y="-11"/>
      <point x="31" y="110"/>
      <point x="31" y="259" type="curve" smooth="yes"/>
      <point x="31" y="436"/>
      <point x="70" y="536"/>
      <point x="169" y="536" type="curve" smooth="yes"/>
      <point x="257" y="536"/>
      <point x="300" y="435"/>
      <point x="300" y="258" type="curve" smooth="yes"/>
      <point x="300" y="252"/>
      <point x="300" y="242"/>
    </contour>
    <contour>
      <point x="218" y="310" type="line"/>
      <point x="216" y="392"/>
      <point x="200" y="456"/>
      <point x="165" y="456" type="curve" smooth="yes"/>
      <point x="131" y="456"/>
      <point x="116" y="408"/>
      <point x="112" y="310" type="curve"/>
    </contour>
  </outline>
</glyph>
<glyph name="f" format="1">
  <advance width="218"/>
  <unicode hex="0066"/>
  <outline>
    <contour>
      <point x="217" y="635" type="line"/>
      <point x="207" y="639"/>
      <point x="194" y="641"/>
      <point x="179" y="641" type="curve" smooth="yes"/>
      <point x="156" y="641"/>
      <point x="142" y="627"/>
      <point x="142" y="597" type="curve" smooth="yes"/>
      <point x="142" y="525" type="line"/>
      <point x="203" y="525" type="line"/>
      <point x="203" y="441" type="line"/>
      <point x="142" y="441" type="line"/>
      <point x="142" y="0" type="line"/>
      <point x="58" y="0" type="line"/>
      <point x="58" y="441" type="line"/>
      <point x="17" y="441" type="line"/>
      <point x="17" y="525" type="line"/>
      <point x="58" y="525" type="line"/>
      <point x="58" y="602" type="line" smooth="yes"/>
      <point x="58" y="685"/>
      <point x="97" y="726"/>
      <point x="158" y="726" type="curve" smooth="yes"/>
      <point x="186" y="726"/>
      <point x="199" y="724"/>
      <point x="217" y="718" type="curve"/>
    </contour>
  </outline>
</glyph>
<glyph name="i" format="1">
  <advance width="181"/>
  <unicode hex="0069"/>
  <outline>
    <contour>
      <point x="144" y="669" type="curve" smooth="yes"/>
      <point x="144" y="640"/>
      <point x="119" y="613"/>
      <point x="91" y="613" type="curve" smooth="yes"/>
      <point x="63" y="613"/>
      <point x="37" y="640"/>
      <point x="37" y="669" type="curve" smooth="yes"/>
      <point x="37" y="699"/>
      <point x="63" y="726"/>
      <point x="91" y="726" type="curve" smooth="yes"/>
      <point x="119" y="726"/>
      <point x="144" y="699"/>
    </contour>
    <contour>
      <point x="133" y="0" type="line"/>
      <point x="48" y="0" type="line"/>
      <point x="48" y="525" type="line"/>
      <point x="133" y="525" type="line"/>
    </contour>
  </outline>
</glyph>
<glyph name="k" format="1">
  <advance width="330"/>
  <unicode hex="006B"/>
  <outline>
    <contour>
      <point x="317" y="0" type="line"/>
      <point x="228" y="0" type="line"/>
      <point x="161" y="243" type="line"/>
      <point x="128" y="176" type="line"/>
      <point x="128" y="0" type="line"/>
      <point x="44" y="0" type="line"/>
      <point x="44" y="683" type="line"/>
      <point x="128" y="729" type="line"/>
      <point x="128" y="464" type="line" smooth="yes"/>
      <point x="128" y="416"/>
      <point x="127" y="341"/>
      <point x="125" y="303" type="curve"/>
      <point x="137" y="334"/>
      <point x="175" y="425"/>
      <point x="190" y="459" type="curve" smooth="yes"/>
      <point x="219" y="525" type="line"/>
      <point x="310" y="525" type="line"/>
      <point x="216" y="339" type="line"/>
    </contour>
  </outline>
</glyph>
<glyph name="l" format="1">
  <advance width="181"/>
  <unicode hex="006C"/>
  <outline>
    <contour>
      <point x="133" y="0" type="line"/>
      <point x="48" y="0" type="line"/>
      <point x="48" y="683" type="line"/>
      <point x="133" y="729" type="line"/>
    </contour>
  </outline>
</glyph>
<glyph name="m" format="1">
  <advance width="503"/>
  <unicode hex="006D"/>
  <outline>
    <contour>
      <point x="463" y="0" type="line"/>
      <point x="378" y="0" type="line"/>
      <point x="378" y="388" type="line" smooth="yes"/>
      <point x="378" y="433"/>
      <point x="374" y="453"/>
      <point x="348" y="453" type="curve" smooth="yes"/>
      <point x="328" y="453"/>
      <point x="311" y="444"/>
      <point x="295" y="430" type="curve"/>
      <point x="295" y="0" type="line"/>
      <point x="211" y="0" type="line"/>
      <point x="211" y="388" type="line" smooth="yes"/>
      <point x="211" y="433"/>
      <point x="206" y="453"/>
      <point x="180" y="453" type="curve" smooth="yes"/>
      <point x="160" y="453"/>
      <point x="143" y="444"/>
      <point x="128" y="430" type="curve"/>
      <point x="128" y="0" type="line"/>
      <point x="44" y="0" type="line"/>
      <point x="44" y="525" type="line"/>
      <point x="128" y="525" type="line"/>
      <point x="128" y="499" type="line"/>
      <point x="145" y="518"/>
      <point x="170" y="536"/>
      <point x="207" y="536" type="curve" smooth="yes"/>
      <point x="247" y="536"/>
      <point x="267" y="524"/>
      <point x="283" y="497" type="curve"/>
      <point x="311" y="520"/>
      <point x="343" y="536"/>
      <point x="375" y="536" type="curve" smooth="yes"/>
      <point x="440" y="536"/>
      <point x="463" y="495"/>
      <point x="463" y="390" type="curve" smooth="yes"/>
    </contour>
  </outline>
</glyph>
<glyph name="n" format="1">
  <advance width="341"/>
  <unicode hex="006E"/>
  <outline>
    <contour>
      <point x="300" y="0" type="line"/>
      <point x="216" y="0" type="line"/>
      <point x="216" y="385" type="line" smooth="yes"/>
      <point x="216" y="430"/>
      <point x="209" y="453"/>
      <point x="182" y="453" type="curve" smooth="yes"/>
      <point x="162" y="453"/>
      <point x="145" y="446"/>
      <point x="128" y="430" type="curve"/>
      <point x="128" y="0" type="line"/>
      <point x="44" y="0" type="line"/>
      <point x="44" y="525" type="line"/>
      <point x="128" y="525" type="line"/>
      <point x="128" y="499" type="line"/>
      <point x="149" y="520"/>
      <point x="171" y="536"/>
      <point x="210" y="536" type="curve" smooth="yes"/>
      <point x="277" y="536"/>
      <point x="300" y="495"/>
      <point x="300" y="386" type="curve" smooth="yes"/>
    </contour>
  </outline>
</glyph>
<glyph name="o" format="1">
  <advance width="349"/>
  <unicode hex="006F"/>
  <outline>
    <contour>
      <point x="318" y="264" type="curve" smooth="yes"/>
      <point x="318" y="111"/>
      <point x="290" y="-11"/>
      <point x="172" y="-11" type="curve" smooth="yes"/>
      <point x="62" y="-11"/>
      <point x="31" y="108"/>
      <point x="31" y="260" type="curve" smooth="yes"/>
      <point x="31" y="408"/>
      <point x="52" y="536"/>
      <point x="176" y="536" type="curve" smooth="yes"/>
      <point x="289" y="536"/>
      <point x="318" y="414"/>
    </contour>
    <contour>
      <point x="233" y="261" type="curve" smooth="yes"/>
      <point x="233" y="360"/>
      <point x="225" y="454"/>
      <point x="174" y="454" type="curve" smooth="yes"/>
      <point x="121" y="454"/>
      <point x="116" y="358"/>
      <point x="116" y="264" type="curve" smooth="yes"/>
      <point x="116" y="167"/>
      <point x="118" y="71"/>
      <point x="175" y="71" type="curve" smooth="yes"/>
      <point x="228" y="71"/>
      <point x="233" y="167"/>
    </contour>
  </outline>
</glyph>
<glyph name="r" format="1">
  <advance width="255"/>
  <unicode hex="0072"/>
  <outline>
    <contour>
      <point x="246" y="523" type="curve"/>
      <point x="229" y="428" type="line"/>
      <point x="215" y="441"/>
      <point x="200" y="448"/>
      <point x="175" y="448" type="curve" smooth="yes"/>
      <point x="155" y="448"/>
      <point x="140" y="439"/>
      <point x="128" y="425" type="curve"/>
      <point x="128" y="0" type="line"/>
      <point x="44" y="0" type="line"/>
      <point x="44" y="525" type="line"/>
      <point x="128" y="525" type="line"/>
      <point x="128" y="499" type="line"/>
      <point x="147" y="521"/>
      <point x="170" y="536"/>
      <point x="199" y="536" type="curve" smooth="yes"/>
      <point x="225" y="536"/>
      <point x="237" y="531"/>
    </contour>
  </outline>
</glyph>
<glyph name="s" format="1">
  <advance width="303"/>
  <unicode hex="0073"/>
  <outline>
    <contour>
      <point x="278" y="124" type="curve" smooth="yes"/>
      <point x="278" y="42"/>
      <point x="223" y="-11"/>
      <point x="147" y="-11" type="curve" smooth="yes"/>
      <point x="75" y="-11"/>
      <point x="40" y="44"/>
      <point x="24" y="116" type="curve"/>
      <point x="99" y="146" type="line"/>
      <point x="110" y="101"/>
      <point x="125" y="69"/>
      <point x="152" y="69" type="curve" smooth="yes"/>
      <point x="179" y="69"/>
      <point x="199" y="90"/>
      <point x="199" y="119" type="curve" smooth="yes"/>
      <point x="199" y="163"/>
      <point x="186" y="186"/>
      <point x="140" y="224" type="curve" smooth="yes"/>
      <point x="58" y="290"/>
      <point x="29" y="335"/>
      <point x="29" y="403" type="curve" smooth="yes"/>
      <point x="29" y="480"/>
      <point x="75" y="536"/>
      <point x="151" y="536" type="curve" smooth="yes"/>
      <point x="219" y="536"/>
      <point x="253" y="489"/>
      <point x="271" y="422" type="curve"/>
      <point x="195" y="392" type="line"/>
      <point x="186" y="428"/>
      <point x="171" y="456"/>
      <point x="147" y="456" type="curve" smooth="yes"/>
      <point x="124" y="456"/>
      <point x="108" y="437"/>
      <point x="108" y="408" type="curve" smooth="yes"/>
      <point x="108" y="370"/>
      <point x="121" y="351"/>
      <point x="168" y="313" type="curve" smooth="yes"/>
      <point x="255" y="242"/>
      <point x="278" y="197"/>
    </contour>
  </outline>
</glyph>
<glyph name="t" format="1">
  <advance width="243"/>
  <unicode hex="0074"/>
  <outline>
    <contour>
      <point x="220" y="92" type="curve"/>
      <point x="211" y="8" type="line"/>
      <point x="192" y="-4"/>
      <point x="173" y="-11"/>
      <point x="143" y="-11" type="curve" smooth="yes"/>
      <point x="79" y="-11"/>
      <point x="55" y="32"/>
      <point x="55" y="111" type="curve" smooth="yes"/>
      <point x="55" y="441" type="line"/>
      <point x="14" y="441" type="line"/>
      <point x="14" y="525" type="line"/>
      <point x="55" y="525" type="line"/>
      <point x="55" y="683" type="line"/>
      <point x="140" y="729" type="line"/>
      <point x="140" y="525" type="line"/>
      <point x="214" y="525" type="line"/>
      <point x="214" y="441" type="line"/>
      <point x="140" y="441" type="line"/>
      <point x="140" y="121" type="line" smooth="yes"/>
      <point x="140" y="89"/>
      <point x="150" y="74"/>
      <point x="169" y="74" type="curve" smooth="yes"/>
      <point x="189" y="74"/>
      <point x="202" y="80"/>
    </contour>
  </outline>
</glyph>
<glyph name="u" format="1">
  <advance width="341"/>
  <unicode hex="0075"/>
  <outline>
    <contour>
      <point x="297" y="0" type="line"/>
      <point x="213" y="0" type="line"/>
      <point x="213" y="26" type="line"/>
      <point x="192" y="5"/>
      <point x="170" y="-11"/>
      <point x="131" y="-11" type="curve" smooth="yes"/>
      <point x="64" y="-11"/>
      <point x="41" y="30"/>
      <point x="41" y="139" type="curve" smooth="yes"/>
      <point x="41" y="525" type="line"/>
      <point x="125" y="525" type="line"/>
      <point x="125" y="140" type="line" smooth="yes"/>
      <point x="125" y="95"/>
      <point x="132" y="72"/>
      <point x="159" y="72" type="curve" smooth="yes"/>
      <point x="179" y="72"/>
      <point x="196" y="79"/>
      <point x="213" y="95" type="curve"/>
      <point x="213" y="525" type="line"/>
      <point x="297" y="525" type="line"/>
    </contour>
  </outline>
</glyph>
<glyph name="v" format="1">
  <advance width="317"/>
  <unicode hex="0076"/>
  <outline>
    <contour>
      <point x="303" y="525" type="line"/>
      <point x="201" y="0" type="line"/>
      <point x="116" y="0" type="line"/>
      <point x="14" y="525" type="line"/>
      <point x="100" y="525" type="line"/>
      <point x="132" y="318" type="line" smooth="yes"/>
      <point x="141" y="259"/>
      <point x="154" y="160"/>
      <point x="159" y="113" type="curve"/>
      <point x="163" y="160"/>
      <point x="176" y="260"/>
      <point x="185" y="318" type="curve" smooth="yes"/>
      <point x="218" y="525" type="line"/>
    </contour>
  </outline>
</glyph>
<glyph name="w" format="1">
  <advance width="429"/>
  <unicode hex="0077"/>
  <outline>
    <contour>
      <point x="411" y="525" type="line"/>
      <point x="347" y="0" type="line"/>
      <point x="265" y="0" type="line"/>
      <point x="243" y="155" type="line" smooth="yes"/>
      <point x="232" y="232"/>
      <point x="220" y="338"/>
      <point x="214" y="395" type="curve"/>
      <point x="207" y="338"/>
      <point x="195" y="231"/>
      <point x="184" y="155" type="curve" smooth="yes"/>
      <point x="162" y="0" type="line"/>
      <point x="83" y="0" type="line"/>
      <point x="18" y="525" type="line"/>
      <point x="98" y="525" type="line"/>
      <point x="106" y="411" type="line" smooth="yes"/>
      <point x="110" y="349"/>
      <point x="122" y="207"/>
      <point x="124" y="150" type="curve"/>
      <point x="130" y="206"/>
      <point x="149" y="352"/>
      <point x="157" y="411" type="curve" smooth="yes"/>
      <point x="172" y="525" type="line"/>
      <point x="257" y="525" type="line"/>
      <point x="273" y="411" type="line" smooth="yes"/>
      <point x="281" y="352"/>
      <point x="299" y="206"/>
      <point x="305" y="150" type="curve"/>
      <point x="308" y="207"/>
      <point x="318" y="351"/>
      <point x="323" y="411" type="curve" smooth="yes"/>
      <point x="332" y="525" type="line"/>
    </contour>
  </outline>
</glyph>
<glyph name="x" format="1">
  <advance width="313"/>
  <unicode hex="0078"/>
  <outline>
    <contour>
      <point x="297" y="0" type="line"/>
      <point x="208" y="0" type="line"/>
      <point x="194" y="55" type="line" smooth="yes"/>
      <point x="183" y="97"/>
      <point x="166" y="160"/>
      <point x="156" y="211" type="curve"/>
      <point x="145" y="160"/>
      <point x="128" y="96"/>
      <point x="118" y="55" type="curve" smooth="yes"/>
      <point x="104" y="0" type="line"/>
      <point x="16" y="0" type="line"/>
      <point x="109" y="274" type="line"/>
      <point x="27" y="525" type="line"/>
      <point x="115" y="525" type="line"/>
      <point x="119" y="510" type="line" smooth="yes"/>
      <point x="130" y="468"/>
      <point x="146" y="405"/>
      <point x="157" y="354" type="curve"/>
      <point x="167" y="405"/>
      <point x="184" y="469"/>
      <point x="195" y="510" type="curve" smooth="yes"/>
      <point x="199" y="525" type="line"/>
      <point x="287" y="525" type="line"/>
      <point x="204" y="276" type="line"/>
    </contour>
  </outline>
</glyph>
<glyph name="y" format="1">
  <advance width="327"/>
  <unicode hex="0079"/>
  <outline>
    <contour>
      <point x="313" y="525" type="line"/>
      <point x="160" y="-185" type="line"/>
      <point x="76" y="-185" type="line"/>
      <point x="122" y="-6" type="line"/>
      <point x="13" y="525" type="line"/>
      <point x="100" y="525" type="line"/>
      <point x="132" y="318" type="line" smooth="yes"/>
      <point x="142" y="255"/>
      <point x="157" y="161"/>
      <point x="161" y="113" type="curve"/>
      <point x="166" y="161"/>
      <point x="180" y="253"/>
      <point x="191" y="318" type="curve" smooth="yes"/>
      <point x="227" y="525" type="line"/>
    </contour>
  </outline>
</glyph>
<glyph name="z" format="1">
  <advance width="293"/>
  <unicode hex="007A"/>
  <outline>
    <contour>
      <point x="261" y="0" type="line"/>
      <point x="24" y="0" type="line"/>
      <point x="24" y="73" type="line"/>
      <point x="141" y="359" type="line" smooth="yes"/>
      <point x="154" y="390"/>
      <point x="170" y="427"/>
      <point x="180" y="446" type="curve"/>
      <point x="163" y="445"/>
      <point x="147" y="445"/>
      <point x="119" y="445" type="curve" smooth="yes"/>
      <point x="38" y="445" type="line"/>
      <point x="38" y="525" type="line"/>
      <point x="261" y="525" type="line"/>
      <point x="261" y="452" type="line"/>
      <point x="144" y="166" type="line" smooth="yes"/>
      <point x="132" y="137"/>
      <point x="115" y="98"/>
      <point x="105" y="79" type="curve"/>
      <point x="122" y="80"/>
      <point x="138" y="80"/>
      <point x="166" y="80" type="curve" smooth="yes"/>
      <point x="261" y="80" type="line"/>
    </contour>
  </outline>
</glyph>
<glyph name="braceleft" format="1">
  <advance width="280"/>
  <unicode hex="007B"/>
  <outline>
    <contour>
      <point x="257" y="-110" type="line"/>
      <point x="117" y="-106"/>
      <point x="86" y="-42"/>
      <point x="86" y="94" type="curve" smooth="yes"/>
      <point x="86" y="170" type="line" smooth="yes"/>
      <point x="86" y="242"/>
      <point x="61" y="260"/>
      <point x="41" y="260" type="curve" smooth="yes"/>
      <point x="13" y="260" type="line"/>
      <point x="13" y="341" type="line"/>
      <point x="41" y="341" type="line" smooth="yes"/>
      <point x="61" y="341"/>
      <point x="86" y="359"/>
      <point x="86" y="431" type="curve" smooth="yes"/>
      <point x="86" y="507" type="line" smooth="yes"/>
      <point x="86" y="643"/>
      <point x="117" y="707"/>
      <point x="257" y="711" type="curve"/>
      <point x="257" y="640" type="line"/>
      <point x="185" y="627"/>
      <point x="172" y="607"/>
      <point x="172" y="523" type="curve" smooth="yes"/>
      <point x="172" y="457" type="line" smooth="yes"/>
      <point x="172" y="363"/>
      <point x="158" y="322"/>
      <point x="96" y="301" type="curve"/>
      <point x="158" y="279"/>
      <point x="172" y="238"/>
      <point x="172" y="144" type="curve" smooth="yes"/>
      <point x="172" y="78" type="line" smooth="yes"/>
      <point x="172" y="-6"/>
      <point x="185" y="-26"/>
      <point x="257" y="-39" type="curve"/>
    </contour>
  </outline>
</glyph>
<glyph name="bar" format="1">
  <advance width="210"/>
  <unicode hex="007C"/>
  <outline>
    <contour>
      <point x="147" y="-185" type="line"/>
      <point x="63" y="-185" type="line"/>
      <point x="63" y="800" type="line"/>
      <point x="147" y="800" type="line"/>
    </contour>
  </outline>
</glyph>
<glyph name="braceright" format="1">
  <advance width="280"/>
  <unicode hex="007D"/>
  <outline>
    <contour>
      <point x="267" y="260" type="line"/>
      <point x="239" y="260" type="line" smooth="yes"/>
      <point x="219" y="260"/>
      <point x="194" y="242"/>
      <point x="194" y="170" type="curve" smooth="yes"/>
      <point x="194" y="94" type="line" smooth="yes"/>
      <point x="194" y="-42"/>
      <point x="163" y="-106"/>
      <point x="23" y="-110" type="curve"/>
      <point x="23" y="-39" type="line"/>
      <point x="95" y="-26"/>
      <point x="108" y="-6"/>
      <point x="108" y="78" type="curve" smooth="yes"/>
      <point x="108" y="144" type="line" smooth="yes"/>
      <point x="108" y="238"/>
      <point x="122" y="279"/>
      <point x="184" y="300" type="curve"/>
      <point x="122" y="322"/>
      <point x="108" y="363"/>
      <point x="108" y="457" type="curve" smooth="yes"/>
      <point x="108" y="523" type="line" smooth="yes"/>
      <point x="108" y="607"/>
      <point x="95" y="627"/>
      <point x="23" y="640" type="curve"/>
      <point x="23" y="711" type="line"/>
      <point x="163" y="707"/>
      <point x="194" y="643"/>
      <point x="194" y="507" type="curve" smooth="yes"/>
      <point x="194" y="431" type="line" smooth="yes"/>
      <point x="194" y="359"/>
      <point x="219" y="341"/>
      <point x="239" y="341" type="curve" smooth="yes"/>
      <point x="267" y="341" type="line"/>
    </contour>
  </outline>
</glyph>
<glyph name="asciitilde" format="1">
  <advance width="334"/>
  <unicode hex="007E"/>
  <outline>
    <contour>
      <point x="314" y="432" type="line"/>
      <point x="298" y="347"/>
      <point x="268" y="302"/>
      <point x="221" y="302" type="curve" smooth="yes"/>
      <point x="190" y="302"/>
      <point x="174" y="314"/>
      <point x="146" y="347" type="curve" smooth="yes"/>
      <point x="132" y="363"/>
      <point x="125" y="370"/>
      <point x="116" y="370" type="curve" smooth="yes"/>
      <point x="104" y="370"/>
      <point x="98" y="362"/>
      <point x="83" y="301" type="curve"/>
      <point x="19" y="317" type="line"/>
      <point x="36" y="402"/>
      <point x="65" y="446"/>
      <point x="113" y="446" type="curve" smooth="yes"/>
      <point x="144" y="446"/>
      <point x="159" y="434"/>
      <point x="188" y="401" type="curve" smooth="yes"/>
      <point x="201" y="386"/>
      <point x="209" y="379"/>
      <point x="217" y="379" type="curve" smooth="yes"/>
      <point x="230" y="379"/>
      <point x="236" y="386"/>
      <point x="250" y="447" type="curve"/>
    </contour>
  </outline>
</glyph>
<glyph name="exclamdown" format="1">
  <advance width="206"/>
  <unicode hex="00A1"/>
  <outline>
    <contour>
      <point x="160" y="653" type="curve" smooth="yes"/>
      <point x="160" y="620"/>
      <point x="136" y="595"/>
      <point x="103" y="595" type="curve" smooth="yes"/>
      <point x="69" y="595"/>
      <point x="45" y="620"/>
      <point x="45" y="653" type="curve" smooth="yes"/>
      <point x="45" y="686"/>
      <point x="69" y="711"/>
      <point x="103" y="711" type="curve" smooth="yes"/>
      <point x="136" y="711"/>
      <point x="160" y="686"/>
    </contour>
    <contour>
      <point x="148" y="0" type="line"/>
      <point x="58" y="0" type="line"/>
      <point x="58" y="344" type="line"/>
      <point x="74" y="518" type="line"/>
      <point x="132" y="518" type="line"/>
      <point x="148" y="344" type="line"/>
    </contour>
  </outline>
</glyph>
<glyph name="cent" format="1">
  <advance width="318"/>
  <unicode hex="00A2"/>
  <outline>
    <contour>
      <point x="294" y="217" type="line"/>
      <point x="279" y="150"/>
      <point x="253" y="105"/>
      <point x="210" y="89" type="curve"/>
      <point x="210" y="-11" type="line"/>
      <point x="127" y="-11" type="line"/>
      <point x="127" y="90" type="line"/>
      <point x="66" y="114"/>
      <point x="31" y="193"/>
      <point x="31" y="352" type="curve" smooth="yes"/>
      <point x="31" y="513"/>
      <point x="61" y="596"/>
      <point x="127" y="621" type="curve"/>
      <point x="127" y="717" type="line"/>
      <point x="210" y="717" type="line"/>
      <point x="210" y="624" type="line"/>
      <point x="261" y="606"/>
      <point x="284" y="549"/>
      <point x="293" y="490" type="curve"/>
      <point x="216" y="459" type="line"/>
      <point x="208" y="506"/>
      <point x="199" y="544"/>
      <point x="171" y="544" type="curve" smooth="yes"/>
      <point x="123" y="544"/>
      <point x="116" y="462"/>
      <point x="116" y="354" type="curve" smooth="yes"/>
      <point x="116" y="237"/>
      <point x="123" y="167"/>
      <point x="172" y="167" type="curve" smooth="yes"/>
      <point x="197" y="167"/>
      <point x="209" y="193"/>
      <point x="222" y="247" type="curve"/>
    </contour>
  </outline>
</glyph>
<glyph name="sterling" format="1">
  <advance width="354"/>
  <unicode hex="00A3"/>
  <outline>
    <contour>
      <point x="325" y="545" type="curve"/>
      <point x="240" y="528" type="line"/>
      <point x="228" y="603"/>
      <point x="213" y="631"/>
      <point x="178" y="631" type="curve" smooth="yes"/>
      <point x="143" y="631"/>
      <point x="133" y="597"/>
      <point x="133" y="554" type="curve" smooth="yes"/>
      <point x="133" y="521"/>
      <point x="141" y="479"/>
      <point x="151" y="449" type="curve" smooth="yes"/>
      <point x="159" y="424"/>
      <point x="167" y="396"/>
      <point x="172" y="364" type="curve"/>
      <point x="255" y="364" type="line"/>
      <point x="255" y="287" type="line"/>
      <point x="175" y="287" type="line"/>
      <point x="173" y="198"/>
      <point x="152" y="138"/>
      <point x="126" y="82" type="curve"/>
      <point x="321" y="82" type="line"/>
      <point x="321" y="0" type="line"/>
      <point x="37" y="0" type="line"/>
      <point x="37" y="81" type="line"/>
      <point x="70" y="144"/>
      <point x="90" y="200"/>
      <point x="92" y="287" type="curve"/>
      <point x="40" y="287" type="line"/>
      <point x="40" y="364" type="line"/>
      <point x="86" y="364" type="line"/>
      <point x="82" y="385"/>
      <point x="76" y="405"/>
      <point x="68" y="427" type="curve" smooth="yes"/>
      <point x="56" y="460"/>
      <point x="45" y="502"/>
      <point x="45" y="548" type="curve" smooth="yes"/>
      <point x="45" y="641"/>
      <point x="90" y="711"/>
      <point x="181" y="711" type="curve" smooth="yes"/>
      <point x="266" y="711"/>
      <point x="306" y="656"/>
    </contour>
  </outline>
</glyph>
<glyph name="yen" format="1">
  <advance width="348"/>
  <unicode hex="00A5"/>
  <outline>
    <contour>
      <point x="338" y="700" type="line"/>
      <point x="221" y="298" type="line"/>
      <point x="221" y="207" type="line"/>
      <point x="304" y="207" type="line"/>
      <point x="304" y="126" type="line"/>
      <point x="221" y="126" type="line"/>
      <point x="221" y="0" type="line"/>
      <point x="137" y="0" type="line"/>
      <point x="137" y="126" type="line"/>
      <point x="54" y="126" type="line"/>
      <point x="54" y="207" type="line"/>
      <point x="137" y="207" type="line"/>
      <point x="137" y="293" type="line"/>
      <point x="10" y="700" type="line"/>
      <point x="111" y="700" type="line"/>
      <point x="154" y="523" type="line" smooth="yes"/>
      <point x="163" y="488"/>
      <point x="176" y="426"/>
      <point x="180" y="386" type="curve"/>
      <point x="183" y="426"/>
      <point x="196" y="490"/>
      <point x="203" y="523" type="curve" smooth="yes"/>
      <point x="242" y="700" type="line"/>
    </contour>
  </outline>
</glyph>
<glyph name="section" format="1">
  <advance width="365"/>
  <unicode hex="00A7"/>
  <outline>
    <contour>
      <point x="335" y="268" type="curve" smooth="yes"/>
      <point x="335" y="202"/>
      <point x="308" y="149"/>
      <point x="270" y="109" type="curve"/>
      <point x="295" y="79"/>
      <point x="310" y="41"/>
      <point x="310" y="-12" type="curve" smooth="yes"/>
      <point x="310" y="-105"/>
      <point x="263" y="-164"/>
      <point x="181" y="-164" type="curve" smooth="yes"/>
      <point x="101" y="-164"/>
      <point x="62" y="-116"/>
      <point x="42" y="-8" type="curve"/>
      <point x="127" y="9" type="line"/>
      <point x="142" y="-60"/>
      <point x="153" y="-84"/>
      <point x="184" y="-84" type="curve" smooth="yes"/>
      <point x="212" y="-84"/>
      <point x="225" y="-59"/>
      <point x="225" y="-18" type="curve" smooth="yes"/>
      <point x="225" y="32"/>
      <point x="209" y="59"/>
      <point x="158" y="91" type="curve" smooth="yes"/>
      <point x="83" y="138"/>
      <point x="31" y="176"/>
      <point x="31" y="279" type="curve" smooth="yes"/>
      <point x="31" y="345"/>
      <point x="58" y="398"/>
      <point x="95" y="438" type="curve"/>
      <point x="71" y="468"/>
      <point x="55" y="506"/>
      <point x="55" y="559" type="curve" smooth="yes"/>
      <point x="55" y="652"/>
      <point x="102" y="711"/>
      <point x="185" y="711" type="curve" smooth="yes"/>
      <point x="264" y="711"/>
      <point x="303" y="663"/>
      <point x="323" y="555" type="curve"/>
      <point x="238" y="538" type="line"/>
      <point x="223" y="607"/>
      <point x="212" y="631"/>
      <point x="182" y="631" type="curve" smooth="yes"/>
      <point x="153" y="631"/>
      <point x="140" y="606"/>
      <point x="140" y="565" type="curve" smooth="yes"/>
      <point x="140" y="515"/>
      <point x="156" y="488"/>
      <point x="207" y="456" type="curve" smooth="yes"/>
      <point x="282" y="409"/>
      <point x="335" y="371"/>
    </contour>
    <contour>
      <point x="249" y="259" type="curve" smooth="yes"/>
      <point x="249" y="319"/>
      <point x="223" y="348"/>
      <point x="173" y="377" type="curve" smooth="yes"/>
      <point x="165" y="382"/>
      <point x="157" y="387"/>
      <point x="150" y="391" type="curve"/>
      <point x="127" y="363"/>
      <point x="116" y="329"/>
      <point x="116" y="288" type="curve" smooth="yes"/>
      <point x="116" y="228"/>
      <point x="143" y="199"/>
      <point x="193" y="170" type="curve" smooth="yes"/>
      <point x="201" y="165"/>
      <point x="208" y="160"/>
      <point x="215" y="155" type="curve"/>
      <point x="238" y="184"/>
      <point x="249" y="218"/>
    </contour>
  </outline>
</glyph>
<glyph name="dieresis" format="1">
  <advance width="330"/>
  <unicode hex="00A8"/>
  <outline>
    <contour>
      <point x="296" y="651" type="curve" smooth="yes"/>
      <point x="296" y="621"/>
      <point x="271" y="595"/>
      <point x="241" y="595" type="curve" smooth="yes"/>
      <point x="211" y="595"/>
      <point x="186" y="621"/>
      <point x="186" y="651" type="curve" smooth="yes"/>
      <point x="186" y="681"/>
      <point x="211" y="706"/>
      <point x="241" y="706" type="curve" smooth="yes"/>
      <point x="271" y="706"/>
      <point x="296" y="681"/>
    </contour>
    <contour>
      <point x="144" y="651" type="curve" smooth="yes"/>
      <point x="144" y="621"/>
      <point x="119" y="595"/>
      <point x="90" y="595" type="curve" smooth="yes"/>
      <point x="58" y="595"/>
      <point x="34" y="621"/>
      <point x="34" y="651" type="curve" smooth="yes"/>
      <point x="34" y="681"/>
      <point x="58" y="706"/>
      <point x="90" y="706" type="curve" smooth="yes"/>
      <point x="119" y="706"/>
      <point x="144" y="681"/>
    </contour>
  </outline>
</glyph>
<glyph name="copyright" format="1">
  <advance width="483"/>
  <unicode hex="00A9"/>
  <outline>
    <contour>
      <point x="451" y="350" type="curve" smooth="yes"/>
      <point x="451" y="135"/>
      <point x="378" y="-11"/>
      <point x="241" y="-11" type="curve" smooth="yes"/>
      <point x="104" y="-11"/>
      <point x="32" y="135"/>
      <point x="32" y="350" type="curve" smooth="yes"/>
      <point x="32" y="565"/>
      <point x="104" y="711"/>
      <point x="241" y="711" type="curve" smooth="yes"/>
      <point x="378" y="711"/>
      <point x="451" y="565"/>
    </contour>
    <contour>
      <point x="400" y="350" type="curve" smooth="yes"/>
      <point x="400" y="534"/>
      <point x="353" y="663"/>
      <point x="241" y="663" type="curve" smooth="yes"/>
      <point x="129" y="663"/>
      <point x="83" y="534"/>
      <point x="83" y="350" type="curve" smooth="yes"/>
      <point x="83" y="166"/>
      <point x="129" y="37"/>
      <point x="241" y="37" type="curve" smooth="yes"/>
      <point x="353" y="37"/>
      <point x="400" y="166"/>
    </contour>
    <contour>
      <point x="325" y="258" type="line"/>
      <point x="314" y="186"/>
      <point x="293" y="148"/>
      <point x="239" y="148" type="curve" smooth="yes"/>
      <point x="176" y="148"/>
      <point x="151" y="212"/>
      <point x="151" y="351" type="curve" smooth="yes"/>
      <point x="151" y="488"/>
      <point x="177" y="554"/>
      <point x="240" y="554" type="curve" smooth="yes"/>
      <point x="295" y="554"/>
      <point x="315" y="512"/>
      <point x="324" y="442" type="curve"/>
      <point x="269" y="431" type="line"/>
      <point x="260" y="487"/>
      <point x="255" y="500"/>
      <point x="239" y="500" type="curve" smooth="yes"/>
      <point x="216" y="500"/>
      <point x="210" y="462"/>
      <point x="210" y="352" type="curve" smooth="yes"/>
      <point x="210" y="237"/>
      <point x="217" y="203"/>
      <point x="241" y="203" type="curve" smooth="yes"/>
      <point x="257" y="203"/>
      <point x="264" y="215"/>
      <point x="271" y="271" type="curve"/>
    </contour>
  </outline>
</glyph>
<glyph name="ordfeminine" format="1">
  <advance width="298"/>
  <unicode hex="00AA"/>
  <outline>
    <contour>
      <point x="253" y="283" type="line"/>
      <point x="182" y="283" type="line"/>
      <point x="182" y="298" type="line"/>
      <point x="166" y="281"/>
      <point x="151" y="273"/>
      <point x="126" y="273" type="curve" smooth="yes"/>
      <point x="71" y="273"/>
      <point x="36" y="321"/>
      <point x="36" y="413" type="curve" smooth="yes"/>
      <point x="36" y="502"/>
      <point x="71" y="553"/>
      <point x="134" y="553" type="curve" smooth="yes"/>
      <point x="156" y="553"/>
      <point x="171" y="548"/>
      <point x="182" y="542" type="curve"/>
      <point x="182" y="593" type="line" smooth="yes"/>
      <point x="182" y="629"/>
      <point x="171" y="641"/>
      <point x="146" y="641" type="curve" smooth="yes"/>
      <point x="126" y="641"/>
      <point x="112" y="629"/>
      <point x="92" y="610" type="curve"/>
      <point x="52" y="658" type="line"/>
      <point x="80" y="689"/>
      <point x="117" y="711"/>
      <point x="156" y="711" type="curve" smooth="yes"/>
      <point x="219" y="711"/>
      <point x="253" y="681"/>
      <point x="253" y="598" type="curve" smooth="yes"/>
    </contour>
    <contour>
      <point x="182" y="355" type="curve"/>
      <point x="182" y="478" type="line"/>
      <point x="171" y="484"/>
      <point x="161" y="488"/>
      <point x="144" y="488" type="curve" smooth="yes"/>
      <point x="117" y="488"/>
      <point x="106" y="463"/>
      <point x="106" y="413" type="curve" smooth="yes"/>
      <point x="106" y="365"/>
      <point x="117" y="338"/>
      <point x="146" y="338" type="curve" smooth="yes"/>
      <point x="158" y="338"/>
      <point x="173" y="344"/>
    </contour>
  </outline>
</glyph>
<glyph name="guillemotleft" format="1">
  <advance width="404"/>
  <unicode hex="00AB"/>
  <outline>
    <contour>
      <point x="378" y="0" type="line"/>
      <point x="293" y="0" type="line"/>
      <point x="171" y="262" type="line"/>
      <point x="293" y="525" type="line"/>
      <point x="378" y="525" type="line"/>
      <point x="258" y="263" type="line"/>
    </contour>
    <contour>
      <point x="220" y="0" type="line"/>
      <point x="135" y="0" type="line"/>
      <point x="13" y="262" type="line"/>
      <point x="135" y="525" type="line"/>
      <point x="220" y="525" type="line"/>
      <point x="100" y="263" type="line"/>
    </contour>
  </outline>
</glyph>
<glyph name="degree" format="1">
  <advance width="346"/>
  <unicode hex="00B0"/>
  <outline>
    <contour>
      <point x="318" y="563" type="curve" smooth="yes"/>
      <point x="318" y="478"/>
      <point x="258" y="413"/>
      <point x="173" y="413" type="curve" smooth="yes"/>
      <point x="89" y="413"/>
      <point x="28" y="478"/>
      <point x="28" y="563" type="curve" smooth="yes"/>
      <point x="28" y="646"/>
      <point x="89" y="711"/>
      <point x="173" y="711" type="curve" smooth="yes"/>
      <point x="258" y="711"/>
      <point x="318" y="646"/>
    </contour>
    <contour>
      <point x="252" y="563" type="curve" smooth="yes"/>
      <point x="252" y="612"/>
      <point x="220" y="647"/>
      <point x="173" y="647" type="curve" smooth="yes"/>
      <point x="127" y="647"/>
      <point x="95" y="612"/>
      <point x="95" y="563" type="curve" smooth="yes"/>
      <point x="95" y="513"/>
      <point x="127" y="476"/>
      <point x="173" y="476" type="curve" smooth="yes"/>
      <point x="220" y="476"/>
      <point x="252" y="513"/>
    </contour>
  </outline>
</glyph>
<glyph name="acute" format="1">
  <advance width="330"/>
  <unicode hex="00B4"/>
  <outline>
    <contour>
      <point x="272" y="752" type="line"/>
      <point x="152" y="592" type="line"/>
      <point x="91" y="592" type="line"/>
      <point x="165" y="752" type="line"/>
    </contour>
  </outline>
</glyph>
<glyph name="paragraph" format="1">
  <advance width="484"/>
  <unicode hex="00B6"/>
  <outline>
    <contour>
      <point x="432" y="-185" type="line"/>
      <point x="358" y="-185" type="line"/>
      <point x="358" y="632" type="line"/>
      <point x="299" y="632" type="line"/>
      <point x="299" y="-185" type="line"/>
      <point x="225" y="-185" type="line"/>
      <point x="225" y="311" type="line"/>
      <point x="207" y="311" type="line" smooth="yes"/>
      <point x="109" y="311"/>
      <point x="29" y="379"/>
      <point x="29" y="506" type="curve" smooth="yes"/>
      <point x="29" y="632"/>
      <point x="113" y="700"/>
      <point x="211" y="700" type="curve" smooth="yes"/>
      <point x="432" y="700" type="line"/>
    </contour>
  </outline>
</glyph>
<glyph name="periodcentered" format="1">
  <advance width="202"/>
  <unicode hex="00B7"/>
  <outline>
    <contour>
      <point x="162" y="367" type="curve" smooth="yes"/>
      <point x="162" y="334"/>
      <point x="137" y="308"/>
      <point x="103" y="308" type="curve" smooth="yes"/>
      <point x="70" y="308"/>
      <point x="45" y="334"/>
      <point x="45" y="367" type="curve" smooth="yes"/>
      <point x="45" y="400"/>
      <point x="70" y="426"/>
      <point x="103" y="426" type="curve" smooth="yes"/>
      <point x="137" y="426"/>
      <point x="162" y="400"/>
    </contour>
  </outline>
</glyph>
<glyph name="cedilla" format="1">
  <advance width="330"/>
  <unicode hex="00B8"/>
  <outline>
    <contour>
      <point x="248" y="-113" type="curve" smooth="yes"/>
      <point x="248" y="-168"/>
      <point x="206" y="-193"/>
      <point x="159" y="-193" type="curve" smooth="yes"/>
      <point x="130" y="-193"/>
      <point x="98" y="-180"/>
      <point x="74" y="-163" type="curve"/>
      <point x="92" y="-133" type="line"/>
      <point x="115" y="-148"/>
      <point x="134" y="-155"/>
      <point x="153" y="-155" type="curve" smooth="yes"/>
      <point x="178" y="-155"/>
      <point x="191" y="-139"/>
      <point x="191" y="-114" type="curve" smooth="yes"/>
      <point x="191" y="-92"/>
      <point x="181" y="-83"/>
      <point x="166" y="-83" type="curve" smooth="yes"/>
      <point x="156" y="-83"/>
      <point x="147" y="-86"/>
      <point x="138" y="-94" type="curve"/>
      <point x="106" y="-78" type="line"/>
      <point x="134" y="0" type="line"/>
      <point x="173" y="0" type="line"/>
      <point x="155" y="-51" type="line"/>
      <point x="163" y="-46"/>
      <point x="174" y="-42"/>
      <point x="190" y="-42" type="curve" smooth="yes"/>
      <point x="222" y="-42"/>
      <point x="248" y="-68"/>
    </contour>
  </outline>
</glyph>
<glyph name="ordmasculine" format="1">
  <advance width="315"/>
  <unicode hex="00BA"/>
  <outline>
    <contour>
      <point x="274" y="494" type="curve" smooth="yes"/>
      <point x="274" y="371"/>
      <point x="246" y="274"/>
      <point x="155" y="274" type="curve" smooth="yes"/>
      <point x="71" y="274"/>
      <point x="41" y="369"/>
      <point x="41" y="490" type="curve" smooth="yes"/>
      <point x="41" y="609"/>
      <point x="63" y="711"/>
      <point x="159" y="711" type="curve" smooth="yes"/>
      <point x="245" y="711"/>
      <point x="274" y="614"/>
    </contour>
    <contour>
      <point x="201" y="491" type="curve" smooth="yes"/>
      <point x="201" y="570"/>
      <point x="195" y="646"/>
      <point x="157" y="646" type="curve" smooth="yes"/>
      <point x="118" y="646"/>
      <point x="114" y="569"/>
      <point x="114" y="494" type="curve" smooth="yes"/>
      <point x="114" y="416"/>
      <point x="115" y="339"/>
      <point x="158" y="339" type="curve" smooth="yes"/>
      <point x="197" y="339"/>
      <point x="201" y="416"/>
    </contour>
  </outline>
</glyph>
<glyph name="guillemotright" format="1">
  <advance width="404"/>
  <unicode hex="00BB"/>
  <outline>
    <contour>
      <point x="391" y="263" type="line"/>
      <point x="269" y="0" type="line"/>
      <point x="184" y="0" type="line"/>
      <point x="304" y="262" type="line"/>
      <point x="184" y="525" type="line"/>
      <point x="269" y="525" type="line"/>
    </contour>
    <contour>
      <point x="233" y="263" type="line"/>
      <point x="111" y="0" type="line"/>
      <point x="26" y="0" type="line"/>
      <point x="146" y="262" type="line"/>
      <point x="26" y="525" type="line"/>
      <point x="111" y="525" type="line"/>
    </contour>
  </outline>
</glyph>
<glyph name="questiondown" format="1">
  <advance width="320"/>
  <unicode hex="00BF"/>
  <outline>
    <contour>
      <point x="238" y="653" type="curve" smooth="yes"/>
      <point x="238" y="620"/>
      <point x="214" y="595"/>
      <point x="181" y="595" type="curve" smooth="yes"/>
      <point x="147" y="595"/>
      <point x="123" y="620"/>
      <point x="123" y="653" type="curve" smooth="yes"/>
      <point x="123" y="686"/>
      <point x="147" y="711"/>
      <point x="181" y="711" type="curve" smooth="yes"/>
      <point x="214" y="711"/>
      <point x="238" y="686"/>
    </contour>
    <contour>
      <point x="309" y="125" type="line"/>
      <point x="288" y="45"/>
      <point x="240" y="-11"/>
      <point x="163" y="-11" type="curve" smooth="yes"/>
      <point x="72" y="-11"/>
      <point x="24" y="53"/>
      <point x="24" y="145" type="curve" smooth="yes"/>
      <point x="24" y="218"/>
      <point x="40" y="256"/>
      <point x="85" y="317" type="curve" smooth="yes"/>
      <point x="132" y="381"/>
      <point x="140" y="413"/>
      <point x="140" y="518" type="curve"/>
      <point x="222" y="518" type="line"/>
      <point x="222" y="401"/>
      <point x="212" y="351"/>
      <point x="157" y="276" type="curve" smooth="yes"/>
      <point x="121" y="228"/>
      <point x="112" y="203"/>
      <point x="112" y="156" type="curve" smooth="yes"/>
      <point x="112" y="107"/>
      <point x="128" y="76"/>
      <point x="165" y="76" type="curve" smooth="yes"/>
      <point x="200" y="76"/>
      <point x="216" y="102"/>
      <point x="234" y="161" type="curve"/>
    </contour>
  </outline>
</glyph>
<glyph name="Aring" format="1">
  <advance width="359"/>
  <unicode hex="00C5"/>
  <outline>
    <contour>
      <point x="342" y="0" type="line"/>
      <point x="249" y="0" type="line"/>
      <point x="226" y="168" type="line"/>
      <point x="130" y="168" type="line"/>
      <point x="108" y="0" type="line"/>
      <point x="17" y="0" type="line"/>
      <point x="123" y="652" type="line"/>
      <point x="98" y="669"/>
      <point x="83" y="698"/>
      <point x="83" y="731" type="curve" smooth="yes"/>
      <point x="83" y="786"/>
      <point x="124" y="828"/>
      <point x="180" y="828" type="curve" smooth="yes"/>
      <point x="236" y="828"/>
      <point x="277" y="786"/>
      <point x="277" y="731" type="curve" smooth="yes"/>
      <point x="277" y="698"/>
      <point x="262" y="669"/>
      <point x="237" y="652" type="curve"/>
    </contour>
    <contour>
      <point x="227" y="731" type="curve" smooth="yes"/>
      <point x="227" y="759"/>
      <point x="207" y="780"/>
      <point x="180" y="780" type="curve" smooth="yes"/>
      <point x="153" y="780"/>
      <point x="133" y="759"/>
      <point x="133" y="731" type="curve" smooth="yes"/>
      <point x="133" y="703"/>
      <point x="153" y="682"/>
      <point x="180" y="682" type="curve" smooth="yes"/>
      <point x="207" y="682"/>
      <point x="227" y="703"/>
    </contour>
    <contour>
      <point x="214" y="255" type="line"/>
      <point x="188" y="450" type="line" smooth="yes"/>
      <point x="184" y="483"/>
      <point x="180" y="514"/>
      <point x="177" y="547" type="curve"/>
      <point x="174" y="514"/>
      <point x="170" y="483"/>
      <point x="166" y="449" type="curve" smooth="yes"/>
      <point x="141" y="255" type="line"/>
    </contour>
  </outline>
</glyph>
<glyph name="AE" format="1">
  <advance width="511"/>
  <unicode hex="00C6"/>
  <outline>
    <contour>
      <point x="489" y="0" type="line"/>
      <point x="236" y="0" type="line"/>
      <point x="236" y="168" type="line"/>
      <point x="141" y="168" type="line"/>
      <point x="102" y="0" type="line"/>
      <point x="8" y="0" type="line"/>
      <point x="191" y="700" type="line"/>
      <point x="477" y="700" type="line"/>
      <point x="477" y="612" type="line"/>
      <point x="323" y="612" type="line"/>
      <point x="323" y="413" type="line"/>
      <point x="442" y="413" type="line"/>
      <point x="442" y="325" type="line"/>
      <point x="323" y="325" type="line"/>
      <point x="323" y="88" type="line"/>
      <point x="489" y="88" type="line"/>
    </contour>
    <contour>
      <point x="238" y="596" type="curve"/>
      <point x="231" y="562"/>
      <point x="218" y="504"/>
      <point x="208" y="461" type="curve" smooth="yes"/>
      <point x="161" y="255" type="line"/>
      <point x="236" y="255" type="line"/>
      <point x="236" y="469" type="line" smooth="yes"/>
      <point x="236" y="512"/>
      <point x="237" y="568"/>
    </contour>
  </outline>
</glyph>
<glyph name="Ccedilla" format="1">
  <advance width="358"/>
  <unicode hex="00C7"/>
  <outline>
    <contour>
      <point x="331" y="184" type="line"/>
      <point x="318" y="75"/>
      <point x="293" y="-5"/>
      <point x="197" y="-11" type="curve"/>
      <point x="183" y="-51" type="line"/>
      <point x="191" y="-46"/>
      <point x="202" y="-42"/>
      <point x="218" y="-42" type="curve" smooth="yes"/>
      <point x="250" y="-42"/>
      <point x="276" y="-68"/>
      <point x="276" y="-113" type="curve" smooth="yes"/>
      <point x="276" y="-168"/>
      <point x="234" y="-193"/>
      <point x="187" y="-193" type="curve" smooth="yes"/>
      <point x="158" y="-193"/>
      <point x="126" y="-180"/>
      <point x="102" y="-163" type="curve"/>
      <point x="120" y="-133" type="line"/>
      <point x="143" y="-148"/>
      <point x="162" y="-155"/>
      <point x="181" y="-155" type="curve" smooth="yes"/>
      <point x="206" y="-155"/>
      <point x="219" y="-139"/>
      <point x="219" y="-114" type="curve" smooth="yes"/>
      <point x="219" y="-92"/>
      <point x="209" y="-83"/>
      <point x="194" y="-83" type="curve" smooth="yes"/>
      <point x="184" y="-83"/>
      <point x="175" y="-86"/>
      <point x="166" y="-94" type="curve"/>
      <point x="134" y="-78" type="line"/>
      <point x="159" y="-9" type="line"/>
      <point x="63" y="9"/>
      <point x="36" y="128"/>
      <point x="36" y="348" type="curve" smooth="yes"/>
      <point x="36" y="588"/>
      <point x="66" y="711"/>
      <point x="188" y="711" type="curve" smooth="yes"/>
      <point x="285" y="711"/>
      <point x="324" y="627"/>
      <point x="329" y="512" type="curve"/>
      <point x="239" y="500" type="line"/>
      <point x="234" y="579"/>
      <point x="220" y="621"/>
      <point x="187" y="621" type="curve" smooth="yes"/>
      <point x="145" y="621"/>
      <point x="128" y="577"/>
      <point x="128" y="352" type="curve" smooth="yes"/>
      <point x="128" y="131"/>
      <point x="146" y="79"/>
      <point x="191" y="79" type="curve" smooth="yes"/>
      <point x="221" y="79"/>
      <point x="233" y="110"/>
      <point x="243" y="196" type="curve"/>
    </contour>
  </outline>
</glyph>
<glyph name="Eth" format="1">
  <advance width="389"/>
  <unicode hex="00D0"/>
  <outline>
    <contour>
      <point x="354" y="355" type="curve" smooth="yes"/>
      <point x="354" y="115"/>
      <point x="299" y="0"/>
      <point x="176" y="0" type="curve" smooth="yes"/>
      <point x="65" y="0" type="line"/>
      <point x="65" y="325" type="line"/>
      <point x="25" y="325" type="line"/>
      <point x="25" y="407" type="line"/>
      <point x="65" y="407" type="line"/>
      <point x="65" y="700" type="line"/>
      <point x="186" y="700" type="line" smooth="yes"/>
      <point x="318" y="700"/>
      <point x="354" y="572"/>
    </contour>
    <contour>
      <point x="262" y="355" type="curve" smooth="yes"/>
      <point x="262" y="555"/>
      <point x="236" y="613"/>
      <point x="181" y="613" type="curve" smooth="yes"/>
      <point x="151" y="613" type="line"/>
      <point x="151" y="407" type="line"/>
      <point x="206" y="407" type="line"/>
      <point x="206" y="325" type="line"/>
      <point x="151" y="325" type="line"/>
      <point x="151" y="86" type="line"/>
      <point x="179" y="86" type="line" smooth="yes"/>
      <point x="231" y="86"/>
      <point x="262" y="145"/>
    </contour>
  </outline>
</glyph>
<glyph name="Oslash" format="1">
  <advance width="376"/>
  <unicode hex="00D8"/>
  <outline>
    <contour>
      <point x="340" y="352" type="curve" smooth="yes"/>
      <point x="340" y="122"/>
      <point x="313" y="-11"/>
      <point x="186" y="-11" type="curve" smooth="yes"/>
      <point x="164" y="-11"/>
      <point x="144" y="-7"/>
      <point x="128" y="2" type="curve"/>
      <point x="114" y="-50" type="line"/>
      <point x="46" y="-50" type="line"/>
      <point x="75" y="59" type="line"/>
      <point x="45" y="120"/>
      <point x="36" y="218"/>
      <point x="36" y="348" type="curve" smooth="yes"/>
      <point x="36" y="578"/>
      <point x="63" y="711"/>
      <point x="187" y="711" type="curve" smooth="yes"/>
      <point x="210" y="711"/>
      <point x="231" y="706"/>
      <point x="248" y="697" type="curve"/>
      <point x="262" y="750" type="line"/>
      <point x="330" y="750" type="line"/>
      <point x="300" y="639" type="line"/>
      <point x="331" y="578"/>
      <point x="340" y="479"/>
    </contour>
    <contour>
      <point x="225" y="611" type="line"/>
      <point x="214" y="624"/>
      <point x="201" y="625"/>
      <point x="186" y="625" type="curve" smooth="yes"/>
      <point x="141" y="625"/>
      <point x="118" y="568"/>
      <point x="118" y="353" type="curve" smooth="yes"/>
      <point x="118" y="303"/>
      <point x="119" y="262"/>
      <point x="121" y="228" type="curve"/>
    </contour>
    <contour>
      <point x="258" y="347" type="curve" smooth="yes"/>
      <point x="258" y="397"/>
      <point x="257" y="439"/>
      <point x="255" y="472" type="curve"/>
      <point x="151" y="88" type="line"/>
      <point x="162" y="77"/>
      <point x="174" y="75"/>
      <point x="189" y="75" type="curve" smooth="yes"/>
      <point x="233" y="75"/>
      <point x="258" y="132"/>
    </contour>
  </outline>
</glyph>
<glyph name="Thorn" format="1">
  <advance width="360"/>
  <unicode hex="00DE"/>
  <outline>
    <contour>
      <point x="337" y="365" type="curve" smooth="yes"/>
      <point x="337" y="222"/>
      <point x="264" y="161"/>
      <point x="179" y="161" type="curve" smooth="yes"/>
      <point x="145" y="161" type="line"/>
      <point x="145" y="0" type="line"/>
      <point x="55" y="0" type="line"/>
      <point x="55" y="700" type="line"/>
      <point x="145" y="700" type="line"/>
      <point x="145" y="559" type="line"/>
      <point x="183" y="559" type="line" smooth="yes"/>
      <point x="268" y="559"/>
      <point x="337" y="510"/>
    </contour>
    <contour>
      <point x="246" y="360" type="curve" smooth="yes"/>
      <point x="246" y="441"/>
      <point x="226" y="474"/>
      <point x="182" y="474" type="curve" smooth="yes"/>
      <point x="145" y="474" type="line"/>
      <point x="145" y="246" type="line"/>
      <point x="177" y="246" type="line" smooth="yes"/>
      <point x="220" y="246"/>
      <point x="246" y="281"/>
    </contour>
  </outline>
</glyph>
<glyph name="germandbls" format="1">
  <advance width="370"/>
  <unicode hex="00DF"/>
  <outline>
    <contour>
      <point x="339" y="226" type="curve" smooth="yes"/>
      <point x="339" y="68"/>
      <point x="296" y="0"/>
      <point x="176" y="0" type="curve" smooth="yes"/>
      <point x="167" y="0" type="line"/>
      <point x="167" y="77" type="line"/>
      <point x="177" y="77" type="line" smooth="yes"/>
      <point x="238" y="77"/>
      <point x="251" y="117"/>
      <point x="251" y="219" type="curve" smooth="yes"/>
      <point x="251" y="326"/>
      <point x="228" y="359"/>
      <point x="178" y="359" type="curve" smooth="yes"/>
      <point x="167" y="359" type="line"/>
      <point x="167" y="436" type="line"/>
      <point x="177" y="436" type="line" smooth="yes"/>
      <point x="210" y="436"/>
      <point x="224" y="460"/>
      <point x="224" y="543" type="curve" smooth="yes"/>
      <point x="224" y="615"/>
      <point x="211" y="649"/>
      <point x="174" y="649" type="curve" smooth="yes"/>
      <point x="139" y="649"/>
      <point x="128" y="619"/>
      <point x="128" y="552" type="curve" smooth="yes"/>
      <point x="128" y="-145" type="line"/>
      <point x="44" y="-193" type="line"/>
      <point x="44" y="548" type="line" smooth="yes"/>
      <point x="44" y="669"/>
      <point x="93" y="726"/>
      <point x="178" y="726" type="curve" smooth="yes"/>
      <point x="266" y="726"/>
      <point x="310" y="660"/>
      <point x="310" y="549" type="curve" smooth="yes"/>
      <point x="310" y="462"/>
      <point x="289" y="425"/>
      <point x="256" y="403" type="curve"/>
      <point x="308" y="384"/>
      <point x="339" y="339"/>
    </contour>
  </outline>
</glyph>
<glyph name="ae" format="1">
  <advance width="501"/>
  <unicode hex="00E6"/>
  <outline>
    <contour>
      <point x="472" y="233" type="curve"/>
      <point x="283" y="233" type="line"/>
      <point x="286" y="123"/>
      <point x="304" y="74"/>
      <point x="343" y="74" type="curve" smooth="yes"/>
      <point x="371" y="74"/>
      <point x="380" y="92"/>
      <point x="398" y="137" type="curve"/>
      <point x="468" y="104" type="line"/>
      <point x="443" y="35"/>
      <point x="413" y="-11"/>
      <point x="339" y="-11" type="curve" smooth="yes"/>
      <point x="299" y="-11"/>
      <point x="269" y="7"/>
      <point x="248" y="37" type="curve"/>
      <point x="219" y="9"/>
      <point x="181" y="-11"/>
      <point x="144" y="-11" type="curve" smooth="yes"/>
      <point x="60" y="-11"/>
      <point x="24" y="53"/>
      <point x="24" y="162" type="curve" smooth="yes"/>
      <point x="24" y="274"/>
      <point x="66" y="338"/>
      <point x="144" y="338" type="curve" smooth="yes"/>
      <point x="172" y="338"/>
      <point x="192" y="330"/>
      <point x="206" y="320" type="curve"/>
      <point x="206" y="390" type="line" smooth="yes"/>
      <point x="206" y="437"/>
      <point x="191" y="452"/>
      <point x="158" y="452" type="curve" smooth="yes"/>
      <point x="133" y="452"/>
      <point x="117" y="438"/>
      <point x="92" y="413" type="curve"/>
      <point x="44" y="473" type="line"/>
      <point x="79" y="510"/>
      <point x="123" y="536"/>
      <point x="171" y="536" type="curve" smooth="yes"/>
      <point x="218" y="536"/>
      <point x="241" y="516"/>
      <point x="256" y="483" type="curve"/>
      <point x="273" y="512"/>
      <point x="301" y="536"/>
      <point x="341" y="536" type="curve" smooth="yes"/>
      <point x="429" y="536"/>
      <point x="472" y="435"/>
      <point x="472" y="258" type="curve" smooth="yes"/>
      <point x="472" y="252"/>
      <point x="472" y="242"/>
    </contour>
    <contour>
      <point x="390" y="310" type="line"/>
      <point x="388" y="392"/>
      <point x="372" y="456"/>
      <point x="337" y="456" type="curve" smooth="yes"/>
      <point x="303" y="456"/>
      <point x="288" y="408"/>
      <point x="284" y="310" type="curve"/>
    </contour>
    <contour>
      <point x="220" y="101" type="curve"/>
      <point x="209" y="142"/>
      <point x="204" y="192"/>
      <point x="203" y="246" type="curve"/>
      <point x="190" y="254"/>
      <point x="178" y="257"/>
      <point x="156" y="257" type="curve" smooth="yes"/>
      <point x="121" y="257"/>
      <point x="106" y="227"/>
      <point x="106" y="164" type="curve" smooth="yes"/>
      <point x="106" y="103"/>
      <point x="121" y="70"/>
      <point x="159" y="70" type="curve" smooth="yes"/>
      <point x="181" y="70"/>
      <point x="203" y="85"/>
    </contour>
  </outline>
</glyph>
<glyph name="ccedilla" format="1">
  <advance width="318"/>
  <unicode hex="00E7"/>
  <outline>
    <contour>
      <point x="294" y="124" type="line"/>
      <point x="276" y="43"/>
      <point x="240" y="-7"/>
      <point x="179" y="-11" type="curve"/>
      <point x="165" y="-51" type="line"/>
      <point x="173" y="-46"/>
      <point x="184" y="-42"/>
      <point x="200" y="-42" type="curve" smooth="yes"/>
      <point x="232" y="-42"/>
      <point x="258" y="-68"/>
      <point x="258" y="-113" type="curve" smooth="yes"/>
      <point x="258" y="-168"/>
      <point x="216" y="-193"/>
      <point x="169" y="-193" type="curve" smooth="yes"/>
      <point x="140" y="-193"/>
      <point x="108" y="-180"/>
      <point x="84" y="-163" type="curve"/>
      <point x="102" y="-133" type="line"/>
      <point x="125" y="-148"/>
      <point x="144" y="-155"/>
      <point x="163" y="-155" type="curve" smooth="yes"/>
      <point x="188" y="-155"/>
      <point x="201" y="-139"/>
      <point x="201" y="-114" type="curve" smooth="yes"/>
      <point x="201" y="-92"/>
      <point x="191" y="-83"/>
      <point x="176" y="-83" type="curve" smooth="yes"/>
      <point x="166" y="-83"/>
      <point x="157" y="-86"/>
      <point x="148" y="-94" type="curve"/>
      <point x="116" y="-78" type="line"/>
      <point x="141" y="-8" type="line"/>
      <point x="72" y="9"/>
      <point x="31" y="88"/>
      <point x="31" y="259" type="curve" smooth="yes"/>
      <point x="31" y="455"/>
      <point x="75" y="536"/>
      <point x="176" y="536" type="curve" smooth="yes"/>
      <point x="251" y="536"/>
      <point x="282" y="468"/>
      <point x="293" y="397" type="curve"/>
      <point x="216" y="366" type="line"/>
      <point x="208" y="413"/>
      <point x="199" y="451"/>
      <point x="171" y="451" type="curve" smooth="yes"/>
      <point x="123" y="451"/>
      <point x="116" y="369"/>
      <point x="116" y="261" type="curve" smooth="yes"/>
      <point x="116" y="144"/>
      <point x="123" y="74"/>
      <point x="172" y="74" type="curve" smooth="yes"/>
      <point x="197" y="74"/>
      <point x="209" y="100"/>
      <point x="222" y="154" type="curve"/>
    </contour>
  </outline>
</glyph>
<glyph name="eth" format="1">
  <advance width="349"/>
  <unicode hex="00F0"/>
  <outline>
    <contour>
      <point x="318" y="288" type="curve" smooth="yes"/>
      <point x="318" y="71"/>
      <point x="272" y="-11"/>
      <point x="173" y="-11" type="curve" smooth="yes"/>
      <point x="77" y="-11"/>
      <point x="31" y="83"/>
      <point x="31" y="236" type="curve" smooth="yes"/>
      <point x="31" y="382"/>
      <point x="77" y="485"/>
      <point x="164" y="485" type="curve" smooth="yes"/>
      <point x="205" y="485"/>
      <point x="227" y="468"/>
      <point x="247" y="428" type="curve"/>
      <point x="240" y="482"/>
      <point x="225" y="531"/>
      <point x="198" y="569" type="curve"/>
      <point x="156" y="524" type="line"/>
      <point x="111" y="565" type="line"/>
      <point x="155" y="612" type="line"/>
      <point x="137" y="625"/>
      <point x="116" y="634"/>
      <point x="92" y="639" type="curve"/>
      <point x="92" y="711" type="line"/>
      <point x="136" y="704"/>
      <point x="173" y="689"/>
      <point x="203" y="665" type="curve"/>
      <point x="245" y="711" type="line"/>
      <point x="290" y="670" type="line"/>
      <point x="245" y="621" type="line"/>
      <point x="294" y="552"/>
      <point x="318" y="443"/>
    </contour>
    <contour>
      <point x="233" y="236" type="curve" smooth="yes"/>
      <point x="233" y="352"/>
      <point x="214" y="403"/>
      <point x="173" y="403" type="curve" smooth="yes"/>
      <point x="132" y="403"/>
      <point x="116" y="351"/>
      <point x="116" y="237" type="curve" smooth="yes"/>
      <point x="116" y="122"/>
      <point x="133" y="71"/>
      <point x="175" y="71" type="curve" smooth="yes"/>
      <point x="215" y="71"/>
      <point x="233" y="122"/>
    </contour>
  </outline>
</glyph>
<glyph name="oslash" format="1">
  <advance width="349"/>
  <unicode hex="00F8"/>
  <outline>
    <contour>
      <point x="318" y="264" type="curve" smooth="yes"/>
      <point x="318" y="111"/>
      <point x="290" y="-11"/>
      <point x="172" y="-11" type="curve" smooth="yes"/>
      <point x="153" y="-11"/>
      <point x="136" y="-7"/>
      <point x="122" y="-1" type="curve"/>
      <point x="106" y="-50" type="line"/>
      <point x="41" y="-50" type="line"/>
      <point x="72" y="45" type="line"/>
      <point x="41" y="94"/>
      <point x="31" y="171"/>
      <point x="31" y="260" type="curve" smooth="yes"/>
      <point x="31" y="408"/>
      <point x="52" y="536"/>
      <point x="176" y="536" type="curve" smooth="yes"/>
      <point x="195" y="536"/>
      <point x="212" y="532"/>
      <point x="227" y="526" type="curve"/>
      <point x="243" y="575" type="line"/>
      <point x="308" y="575" type="line"/>
      <point x="277" y="480" type="line"/>
      <point x="308" y="430"/>
      <point x="318" y="352"/>
    </contour>
    <contour>
      <point x="203" y="451" type="line"/>
      <point x="195" y="457"/>
      <point x="186" y="459"/>
      <point x="174" y="459" type="curve" smooth="yes"/>
      <point x="119" y="459"/>
      <point x="111" y="361"/>
      <point x="111" y="264" type="curve" smooth="yes"/>
      <point x="111" y="229"/>
      <point x="111" y="199"/>
      <point x="113" y="173" type="curve"/>
    </contour>
    <contour>
      <point x="238" y="261" type="curve" smooth="yes"/>
      <point x="238" y="296"/>
      <point x="237" y="326"/>
      <point x="236" y="351" type="curve"/>
      <point x="146" y="74" type="line"/>
      <point x="154" y="69"/>
      <point x="163" y="66"/>
      <point x="175" y="66" type="curve" smooth="yes"/>
      <point x="230" y="66"/>
      <point x="238" y="164"/>
    </contour>
  </outline>
</glyph>
<glyph name="thorn" format="1">
  <advance width="349"/>
  <unicode hex="00FE"/>
  <outline>
    <contour>
      <point x="314" y="266" type="curve" smooth="yes"/>
      <point x="314" y="85"/>
      <point x="282" y="-11"/>
      <point x="198" y="-11" type="curve" smooth="yes"/>
      <point x="171" y="-11"/>
      <point x="147" y="3"/>
      <point x="128" y="23" type="curve"/>
      <point x="128" y="-145" type="line"/>
      <point x="44" y="-193" type="line"/>
      <point x="44" y="683" type="line"/>
      <point x="128" y="729" type="line"/>
      <point x="128" y="500" type="line"/>
      <point x="144" y="520"/>
      <point x="167" y="536"/>
      <point x="199" y="536" type="curve" smooth="yes"/>
      <point x="295" y="536"/>
      <point x="314" y="429"/>
    </contour>
    <contour>
      <point x="229" y="261" type="curve" smooth="yes"/>
      <point x="229" y="383"/>
      <point x="221" y="454"/>
      <point x="178" y="454" type="curve" smooth="yes"/>
      <point x="158" y="454"/>
      <point x="141" y="444"/>
      <point x="128" y="431" type="curve"/>
      <point x="128" y="98" type="line"/>
      <point x="142" y="84"/>
      <point x="158" y="73"/>
      <point x="181" y="73" type="curve" smooth="yes"/>
      <point x="219" y="73"/>
      <point x="229" y="129"/>
    </contour>
  </outline>
</glyph>
<glyph name="Lslash" format="1">
  <advance width="315"/>
  <unicode hex="0141"/>
  <outline>
    <contour>
      <point x="295" y="0" type="line"/>
      <point x="65" y="0" type="line"/>
      <point x="65" y="250" type="line"/>
      <point x="22" y="214" type="line"/>
      <point x="22" y="319" type="line"/>
      <point x="65" y="355" type="line"/>
      <point x="65" y="700" type="line"/>
      <point x="152" y="700" type="line"/>
      <point x="152" y="429" type="line"/>
      <point x="217" y="484" type="line"/>
      <point x="217" y="379" type="line"/>
      <point x="152" y="324" type="line"/>
      <point x="152" y="88" type="line"/>
      <point x="295" y="88" type="line"/>
    </contour>
  </outline>
</glyph>
<glyph name="lslash" format="1">
  <advance width="201"/>
  <unicode hex="0142"/>
  <outline>
    <contour>
      <point x="181" y="365" type="line"/>
      <point x="141" y="329" type="line"/>
      <point x="141" y="0" type="line"/>
      <point x="60" y="0" type="line"/>
      <point x="60" y="255" type="line"/>
      <point x="20" y="219" type="line"/>
      <point x="20" y="319" type="line"/>
      <point x="60" y="355" type="line"/>
      <point x="60" y="683" type="line"/>
      <point x="141" y="729" type="line"/>
      <point x="141" y="429" type="line"/>
      <point x="181" y="465" type="line"/>
    </contour>
  </outline>
</glyph>
<glyph name="OE" format="1">
  <advance width="524"/>
  <unicode hex="0152"/>
  <outline>
    <contour>
      <point x="502" y="0" type="line"/>
      <point x="276" y="0" type="line"/>
      <point x="276" y="50" type="line"/>
      <point x="256" y="6"/>
      <point x="228" y="-11"/>
      <point x="186" y="-11" type="curve" smooth="yes"/>
      <point x="64" y="-11"/>
      <point x="36" y="119"/>
      <point x="36" y="348" type="curve" smooth="yes"/>
      <point x="36" y="578"/>
      <point x="63" y="711"/>
      <point x="187" y="711" type="curve" smooth="yes"/>
      <point x="228" y="711"/>
      <point x="256" y="694"/>
      <point x="276" y="650" type="curve"/>
      <point x="276" y="700" type="line"/>
      <point x="490" y="700" type="line"/>
      <point x="490" y="612" type="line"/>
      <point x="336" y="612" type="line"/>
      <point x="336" y="413" type="line"/>
      <point x="455" y="413" type="line"/>
      <point x="455" y="325" type="line"/>
      <point x="336" y="325" type="line"/>
      <point x="336" y="88" type="line"/>
      <point x="502" y="88" type="line"/>
    </contour>
    <contour>
      <point x="248" y="347" type="curve" smooth="yes"/>
      <point x="248" y="563"/>
      <point x="229" y="621"/>
      <point x="186" y="621" type="curve" smooth="yes"/>
      <point x="142" y="621"/>
      <point x="128" y="564"/>
      <point x="128" y="353" type="curve" smooth="yes"/>
      <point x="128" y="137"/>
      <point x="145" y="79"/>
      <point x="189" y="79" type="curve" smooth="yes"/>
      <point x="232" y="79"/>
      <point x="248" y="136"/>
    </contour>
  </outline>
</glyph>
<glyph name="oe" format="1">
  <advance width="527"/>
  <unicode hex="0153"/>
  <outline>
    <contour>
      <point x="498" y="233" type="curve"/>
      <point x="308" y="233" type="line"/>
      <point x="311" y="123"/>
      <point x="330" y="74"/>
      <point x="369" y="74" type="curve" smooth="yes"/>
      <point x="397" y="74"/>
      <point x="406" y="92"/>
      <point x="424" y="137" type="curve"/>
      <point x="494" y="104" type="line"/>
      <point x="469" y="35"/>
      <point x="439" y="-11"/>
      <point x="365" y="-11" type="curve" smooth="yes"/>
      <point x="319" y="-11"/>
      <point x="288" y="18"/>
      <point x="272" y="59" type="curve"/>
      <point x="257" y="18"/>
      <point x="224" y="-11"/>
      <point x="172" y="-11" type="curve" smooth="yes"/>
      <point x="62" y="-11"/>
      <point x="31" y="108"/>
      <point x="31" y="260" type="curve" smooth="yes"/>
      <point x="31" y="408"/>
      <point x="52" y="536"/>
      <point x="176" y="536" type="curve" smooth="yes"/>
      <point x="223" y="536"/>
      <point x="257" y="507"/>
      <point x="272" y="465" type="curve"/>
      <point x="288" y="507"/>
      <point x="318" y="536"/>
      <point x="367" y="536" type="curve" smooth="yes"/>
      <point x="455" y="536"/>
      <point x="498" y="435"/>
      <point x="498" y="258" type="curve" smooth="yes"/>
      <point x="498" y="252"/>
      <point x="498" y="242"/>
    </contour>
    <contour>
      <point x="416" y="310" type="line"/>
      <point x="414" y="392"/>
      <point x="398" y="456"/>
      <point x="363" y="456" type="curve" smooth="yes"/>
      <point x="329" y="456"/>
      <point x="313" y="408"/>
      <point x="309" y="310" type="curve"/>
    </contour>
    <contour>
      <point x="232" y="261" type="curve" smooth="yes"/>
      <point x="232" y="360"/>
      <point x="225" y="454"/>
      <point x="174" y="454" type="curve" smooth="yes"/>
      <point x="121" y="454"/>
      <point x="116" y="358"/>
      <point x="116" y="264" type="curve" smooth="yes"/>
      <point x="116" y="167"/>
      <point x="118" y="71"/>
      <point x="175" y="71" type="curve" smooth="yes"/>
      <point x="228" y="71"/>
      <point x="232" y="167"/>
    </contour>
  </outline>
</glyph>
<glyph name="florin" format="1">
  <advance width="252"/>
  <unicode hex="0192"/>
  <outline>
    <contour>
      <point x="232" y="623" type="line"/>
      <point x="221" y="628"/>
      <point x="204" y="629"/>
      <point x="191" y="629" type="curve" smooth="yes"/>
      <point x="164" y="629"/>
      <point x="152" y="615"/>
      <point x="152" y="585" type="curve" smooth="yes"/>
      <point x="152" y="525" type="line"/>
      <point x="218" y="525" type="line"/>
      <point x="218" y="441" type="line"/>
      <point x="152" y="441" type="line"/>
      <point x="152" y="-145" type="line"/>
      <point x="68" y="-193" type="line"/>
      <point x="68" y="441" type="line"/>
      <point x="27" y="441" type="line"/>
      <point x="27" y="525" type="line"/>
      <point x="68" y="525" type="line"/>
      <point x="68" y="587" type="line" smooth="yes"/>
      <point x="68" y="670"/>
      <point x="105" y="711"/>
      <point x="170" y="711" type="curve" smooth="yes"/>
      <point x="196" y="711"/>
      <point x="214" y="709"/>
      <point x="232" y="703" type="curve"/>
    </contour>
  </outline>
</glyph>
<glyph name="circumflex" format="1">
  <advance width="330"/>
  <unicode hex="02C6"/>
  <outline>
    <contour>
      <point x="286" y="592" type="line"/>
      <point x="219" y="592" type="line"/>
      <point x="164" y="679" type="line"/>
      <point x="109" y="592" type="line"/>
      <point x="44" y="592" type="line"/>
      <point x="132" y="752" type="line"/>
      <point x="198" y="752" type="line"/>
    </contour>
  </outline>
</glyph>
<glyph name="caron" format="1">
  <advance width="330"/>
  <unicode hex="02C7"/>
  <outline>
    <contour>
      <point x="286" y="752" type="line"/>
      <point x="198" y="592" type="line"/>
      <point x="132" y="592" type="line"/>
      <point x="44" y="752" type="line"/>
      <point x="111" y="752" type="line"/>
      <point x="166" y="664" type="line"/>
      <point x="221" y="752" type="line"/>
    </contour>
  </outline>
</glyph>
<glyph name="breve" format="1">
  <advance width="330"/>
  <unicode hex="02D8"/>
  <outline>
    <contour>
      <point x="291" y="731" type="line"/>
      <point x="287" y="641"/>
      <point x="241" y="592"/>
      <point x="165" y="592" type="curve" smooth="yes"/>
      <point x="92" y="592"/>
      <point x="45" y="641"/>
      <point x="41" y="731" type="curve"/>
      <point x="101" y="731" type="line"/>
      <point x="105" y="677"/>
      <point x="124" y="651"/>
      <point x="167" y="651" type="curve" smooth="yes"/>
      <point x="205" y="651"/>
      <point x="227" y="676"/>
      <point x="231" y="731" type="curve"/>
    </contour>
  </outline>
</glyph>
<glyph name="dotaccent" format="1">
  <advance width="330"/>
  <unicode hex="02D9"/>
  <outline>
    <contour>
      <point x="220" y="651" type="curve" smooth="yes"/>
      <point x="220" y="621"/>
      <point x="195" y="595"/>
      <point x="165" y="595" type="curve" smooth="yes"/>
      <point x="135" y="595"/>
      <point x="110" y="621"/>
      <point x="110" y="651" type="curve" smooth="yes"/>
      <point x="110" y="681"/>
      <point x="135" y="706"/>
      <point x="165" y="706" type="curve" smooth="yes"/>
      <point x="195" y="706"/>
      <point x="220" y="681"/>
    </contour>
  </outline>
</glyph>
<glyph name="ring" format="1">
  <advance width="330"/>
  <unicode hex="02DA"/>
  <outline>
    <contour>
      <point x="262" y="691" type="curve" smooth="yes"/>
      <point x="262" y="637"/>
      <point x="221" y="594"/>
      <point x="165" y="594" type="curve" smooth="yes"/>
      <point x="109" y="594"/>
      <point x="68" y="637"/>
      <point x="68" y="691" type="curve" smooth="yes"/>
      <point x="68" y="746"/>
      <point x="109" y="788"/>
      <point x="165" y="788" type="curve" smooth="yes"/>
      <point x="221" y="788"/>
      <point x="262" y="746"/>
    </contour>
    <contour>
      <point x="212" y="691" type="curve" smooth="yes"/>
      <point x="212" y="719"/>
      <point x="192" y="740"/>
      <point x="165" y="740" type="curve" smooth="yes"/>
      <point x="138" y="740"/>
      <point x="118" y="719"/>
      <point x="118" y="691" type="curve" smooth="yes"/>
      <point x="118" y="663"/>
      <point x="138" y="642"/>
      <point x="165" y="642" type="curve" smooth="yes"/>
      <point x="192" y="642"/>
      <point x="212" y="663"/>
    </contour>
  </outline>
</glyph>
<glyph name="ogonek" format="1">
  <advance width="330"/>
  <unicode hex="02DB"/>
  <outline>
    <contour>
      <point x="258" y="-156" type="line"/>
      <point x="230" y="-179"/>
      <point x="200" y="-193"/>
      <point x="165" y="-193" type="curve" smooth="yes"/>
      <point x="120" y="-193"/>
      <point x="94" y="-163"/>
      <point x="94" y="-120" type="curve" smooth="yes"/>
      <point x="94" y="-79"/>
      <point x="117" y="-39"/>
      <point x="154" y="0" type="curve"/>
      <point x="196" y="0" type="line"/>
      <point x="167" y="-45"/>
      <point x="155" y="-76"/>
      <point x="155" y="-106" type="curve" smooth="yes"/>
      <point x="155" y="-133"/>
      <point x="166" y="-147"/>
      <point x="186" y="-147" type="curve" smooth="yes"/>
      <point x="204" y="-147"/>
      <point x="221" y="-140"/>
      <point x="241" y="-126" type="curve"/>
    </contour>
  </outline>
</glyph>
<glyph name="tilde" format="1">
  <advance width="330"/>
  <unicode hex="02DC"/>
  <outline>
    <contour>
      <point x="300" y="712" type="line"/>
      <point x="300" y="629"/>
      <point x="265" y="593"/>
      <point x="223" y="593" type="curve" smooth="yes"/>
      <point x="201" y="593"/>
      <point x="183" y="600"/>
      <point x="162" y="618" type="curve" smooth="yes"/>
      <point x="136" y="641"/>
      <point x="129" y="648"/>
      <point x="115" y="648" type="curve" smooth="yes"/>
      <point x="101" y="648"/>
      <point x="93" y="637"/>
      <point x="89" y="596" type="curve"/>
      <point x="30" y="596" type="line"/>
      <point x="30" y="680"/>
      <point x="65" y="715"/>
      <point x="107" y="715" type="curve" smooth="yes"/>
      <point x="129" y="715"/>
      <point x="148" y="709"/>
      <point x="168" y="691" type="curve" smooth="yes"/>
      <point x="195" y="668"/>
      <point x="203" y="660"/>
      <point x="215" y="660" type="curve" smooth="yes"/>
      <point x="230" y="660"/>
      <point x="237" y="674"/>
      <point x="241" y="712" type="curve"/>
    </contour>
  </outline>
</glyph>
<glyph name="hungarumlaut" format="1">
  <advance width="330"/>
  <unicode hex="02DD"/>
  <outline>
    <contour>
      <point x="330" y="752" type="line"/>
      <point x="210" y="592" type="line"/>
      <point x="156" y="592" type="line"/>
      <point x="230" y="752" type="line"/>
    </contour>
    <contour>
      <point x="196" y="752" type="line"/>
      <point x="76" y="592" type="line"/>
      <point x="22" y="592" type="line"/>
      <point x="97" y="752" type="line"/>
    </contour>
  </outline>
</glyph>
<glyph name="emdash" format="1">
  <advance width="378"/>
  <unicode hex="2014"/>
  <outline>
    <contour>
      <point x="344" y="325" type="line"/>
      <point x="34" y="325" type="line"/>
      <point x="34" y="407" type="line"/>
      <point x="344" y="407" type="line"/>
    </contour>
  </outline>
</glyph>
<glyph name="quoteleft" format="1">
  <advance width="208"/>
  <unicode hex="2018"/>
  <unicode hex="02BB"/>
  <outline>
    <contour>
      <point x="155" y="700" type="line"/>
      <point x="143" y="507" type="line"/>
      <point x="42" y="507" type="line"/>
      <point x="98" y="700" type="line"/>
    </contour>
  </outline>
</glyph>
<glyph name="quoteright" format="1">
  <advance width="208"/>
  <unicode hex="2019"/>
  <unicode hex="02BC"/>
  <outline>
    <contour>
      <point x="166" y="700" type="line"/>
      <point x="110" y="507" type="line"/>
      <point x="53" y="507" type="line"/>
      <point x="65" y="700" type="line"/>
    </contour>
  </outline>
</glyph>
<glyph name="quotesinglbase" format="1">
  <advance width="208"/>
  <unicode hex="201A"/>
  <outline>
    <contour>
      <point x="166" y="103" type="line"/>
      <point x="110" y="-90" type="line"/>
      <point x="53" y="-90" type="line"/>
      <point x="65" y="103" type="line"/>
    </contour>
  </outline>
</glyph>
<glyph name="quotedblleft" format="1">
  <advance width="376"/>
  <unicode hex="201C"/>
  <outline>
    <contour>
      <point x="323" y="700" type="line"/>
      <point x="311" y="507" type="line"/>
      <point x="210" y="507" type="line"/>
      <point x="266" y="700" type="line"/>
    </contour>
    <contour>
      <point x="155" y="700" type="line"/>
      <point x="143" y="507" type="line"/>
      <point x="42" y="507" type="line"/>
      <point x="98" y="700" type="line"/>
    </contour>
  </outline>
</glyph>
<glyph name="quotedblright" format="1">
  <advance width="376"/>
  <unicode hex="201D"/>
  <outline>
    <contour>
      <point x="334" y="700" type="line"/>
      <point x="278" y="507" type="line"/>
      <point x="221" y="507" type="line"/>
      <point x="233" y="700" type="line"/>
    </contour>
    <contour>
      <point x="166" y="700" type="line"/>
      <point x="110" y="507" type="line"/>
      <point x="53" y="507" type="line"/>
      <point x="65" y="700" type="line"/>
    </contour>
  </outline>
</glyph>
<glyph name="quotedblbase" format="1">
  <advance width="376"/>
  <unicode hex="201E"/>
  <outline>
    <contour>
      <point x="334" y="103" type="line"/>
      <point x="278" y="-90" type="line"/>
      <point x="221" y="-90" type="line"/>
      <point x="233" y="103" type="line"/>
    </contour>
    <contour>
      <point x="166" y="103" type="line"/>
      <point x="110" y="-90" type="line"/>
      <point x="53" y="-90" type="line"/>
      <point x="65" y="103" type="line"/>
    </contour>
  </outline>
</glyph>
<glyph name="dagger" format="1">
  <advance width="351"/>
  <unicode hex="2020"/>
  <outline>
    <contour>
      <point x="332" y="391" type="line"/>
      <point x="217" y="391" type="line"/>
      <point x="217" y="-100" type="line"/>
      <point x="134" y="-100" type="line"/>
      <point x="134" y="391" type="line"/>
      <point x="19" y="391" type="line"/>
      <point x="19" y="471" type="line"/>
      <point x="134" y="471" type="line"/>
      <point x="134" y="700" type="line"/>
      <point x="217" y="700" type="line"/>
      <point x="217" y="471" type="line"/>
      <point x="332" y="471" type="line"/>
    </contour>
  </outline>
</glyph>
<glyph name="daggerdbl" format="1">
  <advance width="351"/>
  <unicode hex="2021"/>
  <outline>
    <contour>
      <point x="332" y="130" type="line"/>
      <point x="215" y="130" type="line"/>
      <point x="215" y="-100" type="line"/>
      <point x="135" y="-100" type="line"/>
      <point x="135" y="130" type="line"/>
      <point x="19" y="130" type="line"/>
      <point x="19" y="208" type="line"/>
      <point x="135" y="208" type="line"/>
      <point x="135" y="393" type="line"/>
      <point x="19" y="393" type="line"/>
      <point x="19" y="471" type="line"/>
      <point x="135" y="471" type="line"/>
      <point x="135" y="700" type="line"/>
      <point x="215" y="700" type="line"/>
      <point x="215" y="471" type="line"/>
      <point x="332" y="471" type="line"/>
      <point x="332" y="393" type="line"/>
      <point x="215" y="393" type="line"/>
      <point x="215" y="208" type="line"/>
      <point x="332" y="208" type="line"/>
    </contour>
  </outline>
</glyph>
<glyph name="ellipsis" format="1">
  <advance width="606"/>
  <unicode hex="2026"/>
  <outline>
    <contour>
      <point x="566" y="48" type="curve" smooth="yes"/>
      <point x="566" y="15"/>
      <point x="541" y="-11"/>
      <point x="507" y="-11" type="curve" smooth="yes"/>
      <point x="474" y="-11"/>
      <point x="449" y="15"/>
      <point x="449" y="48" type="curve" smooth="yes"/>
      <point x="449" y="81"/>
      <point x="474" y="107"/>
      <point x="507" y="107" type="curve" smooth="yes"/>
      <point x="541" y="107"/>
      <point x="566" y="81"/>
    </contour>
    <contour>
      <point x="364" y="48" type="curve" smooth="yes"/>
      <point x="364" y="15"/>
      <point x="339" y="-11"/>
      <point x="305" y="-11" type="curve" smooth="yes"/>
      <point x="272" y="-11"/>
      <point x="247" y="15"/>
      <point x="247" y="48" type="curve" smooth="yes"/>
      <point x="247" y="81"/>
      <point x="272" y="107"/>
      <point x="305" y="107" type="curve" smooth="yes"/>
      <point x="339" y="107"/>
      <point x="364" y="81"/>
    </contour>
    <contour>
      <point x="162" y="48" type="curve" smooth="yes"/>
      <point x="162" y="15"/>
      <point x="137" y="-11"/>
      <point x="103" y="-11" type="curve" smooth="yes"/>
      <point x="70" y="-11"/>
      <point x="45" y="15"/>
      <point x="45" y="48" type="curve" smooth="yes"/>
      <point x="45" y="81"/>
      <point x="70" y="107"/>
      <point x="103" y="107" type="curve" smooth="yes"/>
      <point x="137" y="107"/>
      <point x="162" y="81"/>
    </contour>
  </outline>
</glyph>
<glyph name="perthousand" format="1">
  <advance width="980"/>
  <unicode hex="2030"/>
  <outline>
    <contour>
      <point x="273" y="494" type="curve" smooth="yes"/>
      <point x="273" y="365"/>
      <point x="246" y="275"/>
      <point x="154" y="275" type="curve" smooth="yes"/>
      <point x="62" y="275"/>
      <point x="37" y="363"/>
      <point x="37" y="492" type="curve" smooth="yes"/>
      <point x="37" y="621"/>
      <point x="64" y="711"/>
      <point x="156" y="711" type="curve" smooth="yes"/>
      <point x="248" y="711"/>
      <point x="273" y="623"/>
    </contour>
    <contour>
      <point x="554" y="700" type="line"/>
      <point x="227" y="0" type="line"/>
      <point x="148" y="0" type="line"/>
      <point x="475" y="700" type="line"/>
    </contour>
    <contour>
      <point x="950" y="208" type="curve" smooth="yes"/>
      <point x="950" y="79"/>
      <point x="923" y="-11"/>
      <point x="831" y="-11" type="curve" smooth="yes"/>
      <point x="739" y="-11"/>
      <point x="714" y="77"/>
      <point x="714" y="206" type="curve" smooth="yes"/>
      <point x="714" y="335"/>
      <point x="741" y="425"/>
      <point x="833" y="425" type="curve" smooth="yes"/>
      <point x="925" y="425"/>
      <point x="950" y="337"/>
    </contour>
    <contour>
      <point x="665" y="208" type="curve" smooth="yes"/>
      <point x="665" y="79"/>
      <point x="638" y="-11"/>
      <point x="546" y="-11" type="curve" smooth="yes"/>
      <point x="454" y="-11"/>
      <point x="429" y="77"/>
      <point x="429" y="206" type="curve" smooth="yes"/>
      <point x="429" y="335"/>
      <point x="456" y="425"/>
      <point x="548" y="425" type="curve" smooth="yes"/>
      <point x="640" y="425"/>
      <point x="665" y="337"/>
    </contour>
    <contour>
      <point x="195" y="492" type="curve" smooth="yes"/>
      <point x="195" y="590"/>
      <point x="188" y="639"/>
      <point x="154" y="639" type="curve" smooth="yes"/>
      <point x="120" y="639"/>
      <point x="115" y="592"/>
      <point x="115" y="494" type="curve" smooth="yes"/>
      <point x="115" y="396"/>
      <point x="122" y="347"/>
      <point x="156" y="347" type="curve" smooth="yes"/>
      <point x="190" y="347"/>
      <point x="195" y="394"/>
    </contour>
    <contour>
      <point x="872" y="206" type="curve" smooth="yes"/>
      <point x="872" y="304"/>
      <point x="865" y="353"/>
      <point x="831" y="353" type="curve" smooth="yes"/>
      <point x="797" y="353"/>
      <point x="792" y="306"/>
      <point x="792" y="208" type="curve" smooth="yes"/>
      <point x="792" y="110"/>
      <point x="799" y="61"/>
      <point x="833" y="61" type="curve" smooth="yes"/>
      <point x="867" y="61"/>
      <point x="872" y="108"/>
    </contour>
    <contour>
      <point x="587" y="206" type="curve" smooth="yes"/>
      <point x="587" y="304"/>
      <point x="580" y="353"/>
      <point x="546" y="353" type="curve" smooth="yes"/>
      <point x="512" y="353"/>
      <point x="507" y="306"/>
      <point x="507" y="208" type="curve" smooth="yes"/>
      <point x="507" y="110"/>
      <point x="514" y="61"/>
      <point x="548" y="61" type="curve" smooth="yes"/>
      <point x="582" y="61"/>
      <point x="587" y="108"/>
    </contour>
  </outline>
</glyph>
<glyph name="guilsinglleft" format="1">
  <advance width="246"/>
  <unicode hex="2039"/>
  <outline>
    <contour>
      <point x="220" y="0" type="line"/>
      <point x="135" y="0" type="line"/>
      <point x="13" y="262" type="line"/>
      <point x="135" y="525" type="line"/>
      <point x="220" y="525" type="line"/>
      <point x="100" y="263" type="line"/>
    </contour>
  </outline>
</glyph>
<glyph name="guilsinglright" format="1">
  <advance width="246"/>
  <unicode hex="203A"/>
  <outline>
    <contour>
      <point x="233" y="263" type="line"/>
      <point x="111" y="0" type="line"/>
      <point x="26" y="0" type="line"/>
      <point x="146" y="262" type="line"/>
      <point x="26" y="525" type="line"/>
      <point x="111" y="525" type="line"/>
    </contour>
  </outline>
</glyph>
<glyph name="fraction" format="1">
  <advance width="355"/>
  <unicode hex="2044"/>
  <outline>
    <contour>
      <point x="390" y="700" type="line"/>
      <point x="55" y="0" type="line"/>
      <point x="-35" y="0" type="line"/>
      <point x="301" y="700" type="line"/>
    </contour>
  </outline>
</glyph>
<glyph name="Euro" format="1">
  <advance width="348"/>
  <unicode hex="20AC"/>
  <outline>
    <contour>
      <point x="121" y="380" type="line"/>
      <point x="121" y="371"/>
      <point x="121" y="362"/>
      <point x="121" y="352" type="curve" smooth="yes"/>
      <point x="121" y="342"/>
      <point x="121" y="333"/>
      <point x="121" y="324" type="curve"/>
      <point x="258" y="324" type="line"/>
      <point x="258" y="252" type="line"/>
      <point x="123" y="252" type="line"/>
      <point x="129" y="110"/>
      <point x="151" y="75"/>
      <point x="188" y="75" type="curve" smooth="yes"/>
      <point x="218" y="75"/>
      <point x="233" y="102"/>
      <point x="244" y="196" type="curve"/>
      <point x="329" y="184" type="line"/>
      <point x="315" y="71"/>
      <point x="289" y="-11"/>
      <point x="184" y="-11" type="curve" smooth="yes"/>
      <point x="66" y="-11"/>
      <point x="34" y="109"/>
      <point x="34" y="348" type="curve" smooth="yes"/>
      <point x="34" y="588"/>
      <point x="64" y="711"/>
      <point x="186" y="711" type="curve" smooth="yes"/>
      <point x="283" y="711"/>
      <point x="322" y="627"/>
      <point x="327" y="512" type="curve"/>
      <point x="240" y="500" type="line"/>
      <point x="234" y="588"/>
      <point x="216" y="625"/>
      <point x="183" y="625" type="curve" smooth="yes"/>
      <point x="148" y="625"/>
      <point x="128" y="596"/>
      <point x="123" y="452" type="curve"/>
      <point x="258" y="452" type="line"/>
      <point x="258" y="380" type="line"/>
    </contour>
  </outline>
</glyph>
<glyph name="uni2117" format="1">
  <advance width="483"/>
  <unicode hex="2117"/>
  <outline>
    <contour>
      <point x="451" y="350" type="curve" smooth="yes"/>
      <point x="451" y="135"/>
      <point x="378" y="-11"/>
      <point x="241" y="-11" type="curve" smooth="yes"/>
      <point x="104" y="-11"/>
      <point x="32" y="135"/>
      <point x="32" y="350" type="curve" smooth="yes"/>
      <point x="32" y="565"/>
      <point x="104" y="711"/>
      <point x="241" y="711" type="curve" smooth="yes"/>
      <point x="378" y="711"/>
      <point x="451" y="565"/>
    </contour>
    <contour>
      <point x="400" y="350" type="curve" smooth="yes"/>
      <point x="400" y="534"/>
      <point x="353" y="663"/>
      <point x="241" y="663" type="curve" smooth="yes"/>
      <point x="129" y="663"/>
      <point x="83" y="534"/>
      <point x="83" y="350" type="curve" smooth="yes"/>
      <point x="83" y="166"/>
      <point x="129" y="37"/>
      <point x="241" y="37" type="curve" smooth="yes"/>
      <point x="353" y="37"/>
      <point x="400" y="166"/>
    </contour>
    <contour>
      <point x="336" y="436" type="curve" smooth="yes"/>
      <point x="336" y="354"/>
      <point x="292" y="320"/>
      <point x="240" y="320" type="curve" smooth="yes"/>
      <point x="228" y="320" type="line"/>
      <point x="228" y="151" type="line"/>
      <point x="171" y="151" type="line"/>
      <point x="171" y="546" type="line"/>
      <point x="244" y="546" type="line" smooth="yes"/>
      <point x="295" y="546"/>
      <point x="336" y="515"/>
    </contour>
    <contour>
      <point x="279" y="435" type="curve" smooth="yes"/>
      <point x="279" y="481"/>
      <point x="265" y="496"/>
      <point x="240" y="496" type="curve" smooth="yes"/>
      <point x="228" y="496" type="line"/>
      <point x="228" y="370" type="line"/>
      <point x="239" y="370" type="line" smooth="yes"/>
      <point x="265" y="370"/>
      <point x="279" y="390"/>
    </contour>
  </outline>
</glyph>
<glyph name="trademark" format="1">
  <advance width="453"/>
  <unicode hex="2122"/>
  <outline>
    <contour>
      <point x="176" y="650" type="line"/>
      <point x="121" y="650" type="line"/>
      <point x="121" y="304" type="line"/>
      <point x="67" y="304" type="line"/>
      <point x="67" y="650" type="line"/>
      <point x="12" y="650" type="line"/>
      <point x="12" y="700" type="line"/>
      <point x="176" y="700" type="line"/>
    </contour>
    <contour>
      <point x="424" y="304" type="line"/>
      <point x="376" y="304" type="line"/>
      <point x="376" y="472" type="line" smooth="yes"/>
      <point x="376" y="499"/>
      <point x="376" y="523"/>
      <point x="377" y="545" type="curve"/>
      <point x="373" y="525"/>
      <point x="366" y="497"/>
      <point x="360" y="470" type="curve" smooth="yes"/>
      <point x="319" y="294" type="line"/>
      <point x="278" y="470" type="line" smooth="yes"/>
      <point x="272" y="496"/>
      <point x="265" y="524"/>
      <point x="262" y="543" type="curve"/>
      <point x="262" y="523"/>
      <point x="263" y="499"/>
      <point x="263" y="472" type="curve" smooth="yes"/>
      <point x="263" y="304" type="line"/>
      <point x="214" y="304" type="line"/>
      <point x="214" y="700" type="line"/>
      <point x="267" y="700" type="line"/>
      <point x="303" y="546" type="line" smooth="yes"/>
      <point x="311" y="511"/>
      <point x="316" y="480"/>
      <point x="319" y="455" type="curve"/>
      <point x="323" y="481"/>
      <point x="330" y="512"/>
      <point x="337" y="546" type="curve" smooth="yes"/>
      <point x="371" y="700" type="line"/>
      <point x="424" y="700" type="line"/>
    </contour>
  </outline>
</glyph>
<glyph name="arrowleft" format="1">
  <advance width="364"/>
  <unicode hex="2190"/>
  <outline>
    <contour>
      <point x="340" y="309" type="line"/>
      <point x="152" y="309" type="line"/>
      <point x="170" y="255" type="line" smooth="yes"/>
      <point x="173" y="245"/>
      <point x="172" y="240"/>
      <point x="167" y="236" type="curve"/>
      <point x="161" y="233"/>
      <point x="156" y="234"/>
      <point x="149" y="240" type="curve" smooth="yes"/>
      <point x="10" y="348" type="line"/>
      <point x="149" y="456" type="line" smooth="yes"/>
      <point x="156" y="462"/>
      <point x="161" y="463"/>
      <point x="167" y="460" type="curve"/>
      <point x="172" y="456"/>
      <point x="173" y="451"/>
      <point x="170" y="441" type="curve" smooth="yes"/>
      <point x="152" y="387" type="line"/>
      <point x="340" y="387" type="line"/>
    </contour>
  </outline>
</glyph>
<glyph name="arrowup" format="1">
  <advance width="294"/>
  <unicode hex="2191"/>
  <outline>
    <contour>
      <point x="259" y="558" type="curve"/>
      <point x="255" y="553"/>
      <point x="250" y="552"/>
      <point x="240" y="555" type="curve" smooth="yes"/>
      <point x="187" y="572" type="line"/>
      <point x="187" y="0" type="line"/>
      <point x="107" y="0" type="line"/>
      <point x="107" y="572" type="line"/>
      <point x="54" y="555" type="line" smooth="yes"/>
      <point x="44" y="552"/>
      <point x="39" y="553"/>
      <point x="35" y="558" type="curve"/>
      <point x="32" y="564"/>
      <point x="33" y="569"/>
      <point x="39" y="576" type="curve" smooth="yes"/>
      <point x="147" y="715" type="line"/>
      <point x="255" y="576" type="line" smooth="yes"/>
      <point x="261" y="569"/>
      <point x="262" y="564"/>
    </contour>
  </outline>
</glyph>
<glyph name="arrowright" format="1">
  <advance width="364"/>
  <unicode hex="2192"/>
  <outline>
    <contour>
      <point x="354" y="348" type="line"/>
      <point x="214" y="240" type="line" smooth="yes"/>
      <point x="207" y="234"/>
      <point x="202" y="233"/>
      <point x="197" y="236" type="curve" smooth="yes"/>
      <point x="191" y="240"/>
      <point x="190" y="245"/>
      <point x="193" y="255" type="curve" smooth="yes"/>
      <point x="212" y="309" type="line"/>
      <point x="23" y="309" type="line"/>
      <point x="23" y="387" type="line"/>
      <point x="212" y="387" type="line"/>
      <point x="193" y="441" type="line" smooth="yes"/>
      <point x="190" y="451"/>
      <point x="191" y="456"/>
      <point x="197" y="460" type="curve" smooth="yes"/>
      <point x="202" y="463"/>
      <point x="207" y="462"/>
      <point x="214" y="456" type="curve" smooth="yes"/>
    </contour>
  </outline>
</glyph>
<glyph name="arrowdown" format="1">
  <advance width="294"/>
  <unicode hex="2193"/>
  <outline>
    <contour>
      <point x="259" y="142" type="curve"/>
      <point x="262" y="136"/>
      <point x="261" y="131"/>
      <point x="255" y="124" type="curve" smooth="yes"/>
      <point x="147" y="-15" type="line"/>
      <point x="39" y="124" type="line" smooth="yes"/>
      <point x="33" y="131"/>
      <point x="32" y="136"/>
      <point x="35" y="142" type="curve"/>
      <point x="39" y="147"/>
      <point x="44" y="148"/>
      <point x="54" y="145" type="curve" smooth="yes"/>
      <point x="107" y="128" type="line"/>
      <point x="107" y="700" type="line"/>
      <point x="187" y="700" type="line"/>
      <point x="187" y="128" type="line"/>
      <point x="240" y="145" type="line" smooth="yes"/>
      <point x="250" y="148"/>
      <point x="255" y="147"/>
    </contour>
  </outline>
</glyph>
<glyph name="arrowboth" format="1">
  <advance width="514"/>
  <unicode hex="2194"/>
  <outline>
    <contour>
      <point x="504" y="348" type="line"/>
      <point x="365" y="240" type="line" smooth="yes"/>
      <point x="358" y="234"/>
      <point x="353" y="233"/>
      <point x="347" y="236" type="curve"/>
      <point x="342" y="240"/>
      <point x="340" y="245"/>
      <point x="343" y="255" type="curve" smooth="yes"/>
      <point x="362" y="309" type="line"/>
      <point x="152" y="309" type="line"/>
      <point x="170" y="255" type="line" smooth="yes"/>
      <point x="173" y="245"/>
      <point x="172" y="240"/>
      <point x="167" y="236" type="curve"/>
      <point x="161" y="233"/>
      <point x="156" y="234"/>
      <point x="149" y="240" type="curve" smooth="yes"/>
      <point x="10" y="348" type="line"/>
      <point x="149" y="456" type="line" smooth="yes"/>
      <point x="156" y="462"/>
      <point x="161" y="463"/>
      <point x="167" y="460" type="curve"/>
      <point x="172" y="456"/>
      <point x="173" y="451"/>
      <point x="170" y="441" type="curve" smooth="yes"/>
      <point x="152" y="387" type="line"/>
      <point x="362" y="387" type="line"/>
      <point x="343" y="441" type="line" smooth="yes"/>
      <point x="340" y="451"/>
      <point x="342" y="456"/>
      <point x="347" y="460" type="curve"/>
      <point x="353" y="463"/>
      <point x="358" y="462"/>
      <point x="365" y="456" type="curve" smooth="yes"/>
    </contour>
  </outline>
</glyph>
<glyph name="arrowupdn" format="1">
  <advance width="294"/>
  <unicode hex="2195"/>
  <outline>
    <contour>
      <point x="259" y="142" type="curve"/>
      <point x="262" y="136"/>
      <point x="261" y="131"/>
      <point x="255" y="124" type="curve" smooth="yes"/>
      <point x="147" y="-15" type="line"/>
      <point x="39" y="124" type="line" smooth="yes"/>
      <point x="33" y="131"/>
      <point x="32" y="136"/>
      <point x="35" y="142" type="curve"/>
      <point x="39" y="147"/>
      <point x="44" y="148"/>
      <point x="54" y="145" type="curve" smooth="yes"/>
      <point x="107" y="128" type="line"/>
      <point x="107" y="572" type="line"/>
      <point x="54" y="555" type="line" smooth="yes"/>
      <point x="44" y="552"/>
      <point x="39" y="553"/>
      <point x="35" y="558" type="curve"/>
      <point x="32" y="564"/>
      <point x="33" y="569"/>
      <point x="39" y="576" type="curve" smooth="yes"/>
      <point x="147" y="715" type="line"/>
      <point x="255" y="576" type="line" smooth="yes"/>
      <point x="261" y="569"/>
      <point x="262" y="564"/>
      <point x="259" y="558" type="curve"/>
      <point x="255" y="553"/>
      <point x="250" y="552"/>
      <point x="240" y="555" type="curve" smooth="yes"/>
      <point x="187" y="572" type="line"/>
      <point x="187" y="128" type="line"/>
      <point x="240" y="145" type="line" smooth="yes"/>
      <point x="250" y="148"/>
      <point x="255" y="147"/>
    </contour>
  </outline>
</glyph>
<glyph name="radical" format="1">
  <advance width="360"/>
  <unicode hex="221A"/>
  <outline>
    <contour>
      <point x="354" y="700" type="line"/>
      <point x="209" y="0" type="line"/>
      <point x="119" y="0" type="line"/>
      <point x="11" y="340" type="line"/>
      <point x="103" y="340" type="line"/>
      <point x="127" y="248" type="line" smooth="yes"/>
      <point x="137" y="208"/>
      <point x="152" y="144"/>
      <point x="160" y="96" type="curve"/>
      <point x="165" y="145"/>
      <point x="177" y="220"/>
      <point x="185" y="263" type="curve" smooth="yes"/>
      <point x="264" y="700" type="line"/>
    </contour>
  </outline>
</glyph>
<glyph name="apple" format="1">
  <advance width="548"/>
  <unicode hex="F8FF"/>
  <outline>
    <contour>
      <point x="538" y="348" type="line"/>
      <point x="399" y="240" type="line" smooth="yes"/>
      <point x="392" y="234"/>
      <point x="387" y="233"/>
      <point x="381" y="236" type="curve"/>
      <point x="376" y="240"/>
      <point x="375" y="246"/>
      <point x="378" y="255" type="curve" smooth="yes"/>
      <point x="397" y="310" type="line"/>
      <point x="312" y="310" type="line"/>
      <point x="312" y="123" type="line"/>
      <point x="367" y="142" type="line" smooth="yes"/>
      <point x="377" y="145"/>
      <point x="382" y="144"/>
      <point x="386" y="138" type="curve" smooth="yes"/>
      <point x="389" y="133"/>
      <point x="388" y="128"/>
      <point x="382" y="121" type="curve" smooth="yes"/>
      <point x="274" y="-18" type="line"/>
      <point x="166" y="121" type="line" smooth="yes"/>
      <point x="160" y="128"/>
      <point x="159" y="133"/>
      <point x="162" y="138" type="curve" smooth="yes"/>
      <point x="166" y="144"/>
      <point x="171" y="145"/>
      <point x="181" y="142" type="curve" smooth="yes"/>
      <point x="236" y="123" type="line"/>
      <point x="236" y="310" type="line"/>
      <point x="152" y="310" type="line"/>
      <point x="170" y="255" type="line" smooth="yes"/>
      <point x="173" y="245"/>
      <point x="172" y="240"/>
      <point x="167" y="236" type="curve"/>
      <point x="161" y="233"/>
      <point x="156" y="234"/>
      <point x="149" y="240" type="curve" smooth="yes"/>
      <point x="10" y="348" type="line"/>
      <point x="149" y="456" type="line" smooth="yes"/>
      <point x="156" y="462"/>
      <point x="161" y="463"/>
      <point x="167" y="460" type="curve"/>
      <point x="172" y="456"/>
      <point x="173" y="451"/>
      <point x="170" y="441" type="curve" smooth="yes"/>
      <point x="152" y="386" type="line"/>
      <point x="236" y="386" type="line"/>
      <point x="236" y="577" type="line"/>
      <point x="181" y="558" type="line" smooth="yes"/>
      <point x="171" y="555"/>
      <point x="166" y="556"/>
      <point x="162" y="562" type="curve" smooth="yes"/>
      <point x="159" y="567"/>
      <point x="160" y="572"/>
      <point x="166" y="579" type="curve" smooth="yes"/>
      <point x="274" y="718" type="line"/>
      <point x="382" y="579" type="line" smooth="yes"/>
      <point x="388" y="572"/>
      <point x="389" y="567"/>
      <point x="386" y="562" type="curve" smooth="yes"/>
      <point x="382" y="556"/>
      <point x="377" y="555"/>
      <point x="367" y="558" type="curve" smooth="yes"/>
      <point x="312" y="577" type="line"/>
      <point x="312" y="386" type="line"/>
      <point x="397" y="386" type="line"/>
      <point x="378" y="441" type="line" smooth="yes"/>
      <point x="375" y="451"/>
      <point x="376" y="456"/>
      <point x="381" y="460" type="curve"/>
      <point x="387" y="463"/>
      <point x="392" y="462"/>
      <point x="399" y="456" type="curve" smooth="yes"/>
    </contour>
  </outline>
</glyph>
<glyph name="fi" format="1">
  <advance width="399"/>
  <unicode hex="FB01"/>
  <outline>
    <contour>
      <point x="362" y="669" type="curve" smooth="yes"/>
      <point x="362" y="640"/>
      <point x="337" y="613"/>
      <point x="309" y="613" type="curve" smooth="yes"/>
      <point x="281" y="613"/>
      <point x="255" y="640"/>
      <point x="255" y="669" type="curve" smooth="yes"/>
      <point x="255" y="699"/>
      <point x="281" y="726"/>
      <point x="309" y="726" type="curve" smooth="yes"/>
      <point x="337" y="726"/>
      <point x="362" y="699"/>
    </contour>
    <contour>
      <point x="217" y="635" type="line"/>
      <point x="207" y="639"/>
      <point x="194" y="641"/>
      <point x="179" y="641" type="curve" smooth="yes"/>
      <point x="156" y="641"/>
      <point x="142" y="627"/>
      <point x="142" y="597" type="curve" smooth="yes"/>
      <point x="142" y="525" type="line"/>
      <point x="203" y="525" type="line"/>
      <point x="203" y="441" type="line"/>
      <point x="142" y="441" type="line"/>
      <point x="142" y="0" type="line"/>
      <point x="58" y="0" type="line"/>
      <point x="58" y="441" type="line"/>
      <point x="17" y="441" type="line"/>
      <point x="17" y="525" type="line"/>
      <point x="58" y="525" type="line"/>
      <point x="58" y="602" type="line" smooth="yes"/>
      <point x="58" y="685"/>
      <point x="97" y="726"/>
      <point x="158" y="726" type="curve" smooth="yes"/>
      <point x="186" y="726"/>
      <point x="199" y="724"/>
      <point x="217" y="718" type="curve"/>
    </contour>
    <contour>
      <point x="351" y="0" type="line"/>
      <point x="266" y="0" type="line"/>
      <point x="266" y="525" type="line"/>
      <point x="351" y="525" type="line"/>
    </contour>
  </outline>
</glyph>
<glyph name="a.salt" format="1">
  <advance width="349"/>
  <outline>
    <contour>
      <point x="305" y="0" type="line"/>
      <point x="220" y="0" type="line"/>
      <point x="220" y="25" type="line"/>
      <point x="204" y="5"/>
      <point x="181" y="-11"/>
      <point x="150" y="-11" type="curve" smooth="yes"/>
      <point x="53" y="-11"/>
      <point x="34" y="96"/>
      <point x="34" y="259" type="curve" smooth="yes"/>
      <point x="34" y="440"/>
      <point x="66" y="536"/>
      <point x="151" y="536" type="curve" smooth="yes"/>
      <point x="178" y="536"/>
      <point x="201" y="522"/>
      <point x="220" y="502" type="curve"/>
      <point x="220" y="525" type="line"/>
      <point x="305" y="525" type="line"/>
    </contour>
    <contour>
      <point x="220" y="94" type="curve"/>
      <point x="220" y="427" type="line"/>
      <point x="207" y="441"/>
      <point x="191" y="452"/>
      <point x="167" y="452" type="curve" smooth="yes"/>
      <point x="129" y="452"/>
      <point x="120" y="396"/>
      <point x="120" y="264" type="curve" smooth="yes"/>
      <point x="120" y="142"/>
      <point x="127" y="71"/>
      <point x="171" y="71" type="curve" smooth="yes"/>
      <point x="191" y="71"/>
      <point x="208" y="81"/>
    </contour>
  </outline>
</glyph>
<glyph name="bullet" format="1">
  <advance width="317"/>
  <outline>
    <contour>
      <point x="256" y="366" type="curve" smooth="yes"/>
      <point x="256" y="312"/>
      <point x="213" y="269"/>
      <point x="158" y="269" type="curve" smooth="yes"/>
      <point x="104" y="269"/>
      <point x="61" y="312"/>
      <point x="61" y="366" type="curve" smooth="yes"/>
      <point x="61" y="420"/>
      <point x="104" y="465"/>
      <point x="158" y="465" type="curve" smooth="yes"/>
      <point x="213" y="465"/>
      <point x="256" y="420"/>
    </contour>
  </outline>
</glyph>
<glyph name="macron" format="1">
  <advance width="330"/>
  <outline>
    <contour>
      <point x="286" y="612" type="line"/>
      <point x="44" y="612" type="line"/>
      <point x="44" y="679" type="line"/>
      <point x="286" y="679" type="line"/>
    </contour>
  </outline>
</glyph>
<glyph name="registered" format="1">
  <advance width="483"/>
  <outline>
    <contour>
      <point x="451" y="350" type="curve" smooth="yes"/>
      <point x="451" y="135"/>
      <point x="378" y="-11"/>
      <point x="241" y="-11" type="curve" smooth="yes"/>
      <point x="104" y="-11"/>
      <point x="32" y="135"/>
      <point x="32" y="350" type="curve" smooth="yes"/>
      <point x="32" y="565"/>
      <point x="104" y="711"/>
      <point x="241" y="711" type="curve" smooth="yes"/>
      <point x="378" y="711"/>
      <point x="451" y="565"/>
    </contour>
    <contour>
      <point x="400" y="350" type="curve" smooth="yes"/>
      <point x="400" y="534"/>
      <point x="353" y="663"/>
      <point x="241" y="663" type="curve" smooth="yes"/>
      <point x="129" y="663"/>
      <point x="83" y="534"/>
      <point x="83" y="350" type="curve" smooth="yes"/>
      <point x="83" y="166"/>
      <point x="129" y="37"/>
      <point x="241" y="37" type="curve" smooth="yes"/>
      <point x="353" y="37"/>
      <point x="400" y="166"/>
    </contour>
    <contour>
      <point x="336" y="162" type="line"/>
      <point x="277" y="162" type="line"/>
      <point x="239" y="339" type="line"/>
      <point x="234" y="338"/>
      <point x="227" y="338"/>
      <point x="221" y="338" type="curve"/>
      <point x="221" y="162" type="line"/>
      <point x="165" y="162" type="line"/>
      <point x="165" y="556" type="line"/>
      <point x="238" y="556" type="line" smooth="yes"/>
      <point x="290" y="556"/>
      <point x="331" y="525"/>
      <point x="331" y="450" type="curve" smooth="yes"/>
      <point x="331" y="405"/>
      <point x="316" y="375"/>
      <point x="293" y="357" type="curve"/>
    </contour>
    <contour>
      <point x="273" y="448" type="curve" smooth="yes"/>
      <point x="273" y="490"/>
      <point x="260" y="507"/>
      <point x="233" y="507" type="curve" smooth="yes"/>
      <point x="221" y="507" type="line"/>
      <point x="221" y="385" type="line"/>
      <point x="233" y="385" type="line" smooth="yes"/>
      <point x="259" y="385"/>
      <point x="273" y="408"/>
    </contour>
  </outline>
</glyph>
